<svg xmlns="http://www.w3.org/2000/svg" xmlns:xlink="http://www.w3.org/1999/xlink" preserveAspectRatio="xMidYMid" width="49" height="36" viewBox="0 0 49 36">
  <defs>
    <style>

      .cls-2 {
        fill: #796886;
      }
    </style>
  </defs>
  <path d="M35.040,35.956 C35.004,35.957 16.054,35.969 7.001,35.969 C3.140,35.969 0.000,32.828 0.000,28.969 C0.000,26.612 1.174,24.528 2.965,23.260 C1.940,22.488 1.015,21.573 0.249,20.508 C0.024,20.193 0.000,19.778 0.189,19.440 C0.378,19.102 0.737,18.908 1.135,18.928 C1.135,18.928 1.298,18.940 1.298,18.940 C1.477,18.951 1.655,18.965 1.836,18.965 C7.943,18.965 12.911,14.028 12.911,7.960 C12.911,5.664 12.197,3.457 10.846,1.577 C10.620,1.263 10.596,0.847 10.785,0.510 C10.973,0.172 11.344,-0.031 11.729,-0.003 C18.144,0.399 23.235,5.393 23.889,11.617 C26.577,8.734 30.396,6.968 34.498,6.968 C42.494,6.968 49.000,13.473 49.000,21.469 C49.000,29.303 42.868,35.666 35.040,35.956 ZM21.973,12.962 C21.973,7.864 18.437,3.518 13.618,2.307 C14.478,4.063 14.925,5.983 14.925,7.960 C14.925,14.662 9.797,20.197 3.235,20.893 C3.786,21.418 4.402,21.857 5.044,22.254 C5.666,22.072 6.321,21.970 7.001,21.970 C7.591,21.970 8.172,22.043 8.735,22.187 C10.255,18.479 13.923,15.969 17.988,15.969 C18.990,15.969 19.971,16.115 20.916,16.405 C21.182,15.694 21.502,15.012 21.870,14.362 C21.930,13.903 21.973,13.438 21.973,12.962 ZM34.498,8.969 C28.976,8.969 24.042,12.674 22.500,17.978 C22.420,18.253 22.226,18.481 21.967,18.603 C21.708,18.726 21.409,18.732 21.145,18.617 C20.144,18.187 19.082,17.969 17.988,17.969 C14.457,17.969 11.300,20.337 10.312,23.729 C10.232,24.004 10.038,24.231 9.780,24.354 C9.521,24.476 9.223,24.483 8.959,24.369 C8.339,24.104 7.680,23.970 7.001,23.970 C4.244,23.970 2.000,26.212 2.000,28.969 C2.000,31.726 4.244,33.969 7.001,33.969 C16.054,33.969 35.002,33.957 35.002,33.957 C41.714,33.708 47.000,28.222 47.000,21.469 C47.000,14.576 41.391,8.969 34.498,8.969 Z" id="path-1" class="cls-2" fill-rule="evenodd"/>
</svg>
