<svg xmlns="http://www.w3.org/2000/svg" xmlns:xlink="http://www.w3.org/1999/xlink" preserveAspectRatio="xMidYMid" width="54" height="39" viewBox="0 0 54 39">
  <defs>
    <style>

      .cls-2 {
        fill: #796886;
      }
    </style>
  </defs>
  <path d="M40.040,38.987 C40.004,38.988 21.054,39.000 12.001,39.000 C8.140,39.000 5.000,35.859 5.000,32.000 C5.000,28.344 7.819,25.339 11.398,25.032 C10.526,23.551 10.001,21.842 10.001,19.998 C10.001,14.475 14.478,9.998 20.001,9.998 C23.680,9.998 26.874,11.999 28.610,14.960 C31.309,11.894 35.251,10.000 39.498,10.000 C47.494,10.000 54.000,16.505 54.000,24.500 C54.000,32.334 47.867,38.697 40.040,38.987 ZM20.000,11.998 C15.582,11.998 12.000,15.580 12.000,19.998 C12.000,21.916 12.705,23.651 13.830,25.029 C15.397,21.429 18.995,19.000 22.988,19.000 C23.990,19.000 24.971,19.147 25.916,19.437 C26.275,18.475 26.739,17.570 27.282,16.723 C26.030,13.941 23.249,11.998 20.000,11.998 ZM39.498,12.000 C33.976,12.000 29.042,15.705 27.500,21.009 C27.420,21.284 27.226,21.512 26.967,21.634 C26.708,21.757 26.409,21.763 26.145,21.648 C25.144,21.218 24.082,21.000 22.988,21.000 C19.457,21.000 16.300,23.369 15.312,26.760 C15.232,27.036 15.038,27.262 14.780,27.385 C14.521,27.507 14.223,27.514 13.959,27.401 C13.339,27.135 12.680,27.001 12.001,27.001 C9.244,27.001 7.000,29.243 7.000,32.000 C7.000,34.757 9.244,37.000 12.001,37.000 C21.054,37.000 40.002,36.988 40.002,36.988 C46.714,36.739 52.000,31.253 52.000,24.500 C52.000,17.608 46.391,12.000 39.498,12.000 ZM29.899,11.515 C29.509,11.905 28.876,11.905 28.485,11.515 C28.095,11.124 28.095,10.491 28.485,10.100 C28.485,10.100 32.728,5.858 32.728,5.858 C33.118,5.467 33.752,5.467 34.142,5.858 C34.533,6.248 34.533,6.881 34.142,7.272 C34.142,7.272 29.899,11.515 29.899,11.515 ZM20.000,8.000 C19.448,8.000 19.000,7.552 19.000,7.000 C19.000,7.000 19.000,1.000 19.000,1.000 C19.000,0.447 19.448,-0.000 20.000,-0.000 C20.552,-0.000 21.000,0.447 21.000,1.000 C21.000,1.000 21.000,7.000 21.000,7.000 C21.000,7.552 20.552,8.000 20.000,8.000 ZM10.105,11.511 C10.105,11.511 5.863,7.269 5.863,7.269 C5.472,6.878 5.472,6.245 5.863,5.855 C6.253,5.464 6.886,5.464 7.277,5.855 C7.277,5.855 11.520,10.097 11.520,10.097 C11.910,10.488 11.910,11.121 11.520,11.511 C11.129,11.902 10.496,11.902 10.105,11.511 ZM8.003,19.999 C8.003,20.551 7.555,20.999 7.003,20.999 C7.003,20.999 1.003,20.999 1.003,20.999 C0.451,20.999 0.003,20.551 0.003,19.999 C0.003,19.446 0.451,18.998 1.003,18.998 C1.003,18.998 7.003,18.998 7.003,18.998 C7.555,18.998 8.003,19.446 8.003,19.999 Z" id="path-1" class="cls-2" fill-rule="evenodd"/>
</svg>
