<svg xmlns="http://www.w3.org/2000/svg" xmlns:xlink="http://www.w3.org/1999/xlink" preserveAspectRatio="xMidYMid" width="40" height="20" viewBox="0 0 40 20">
  <defs>
    <style>

      .cls-2 {
        fill: #796886;
      }
    </style>
  </defs>
  <path d="M39.000,2.000 C39.000,2.000 31.000,2.000 31.000,2.000 C30.448,2.000 30.000,1.552 30.000,1.000 C30.000,0.447 30.448,-0.000 31.000,-0.000 C31.000,-0.000 39.000,-0.000 39.000,-0.000 C39.552,-0.000 40.000,0.447 40.000,1.000 C40.000,1.552 39.552,2.000 39.000,2.000 ZM25.000,2.000 C25.000,2.000 1.000,2.000 1.000,2.000 C0.448,2.000 -0.000,1.552 -0.000,1.000 C-0.000,0.447 0.448,-0.000 1.000,-0.000 C1.000,-0.000 25.000,-0.000 25.000,-0.000 C25.552,-0.000 26.000,0.447 26.000,1.000 C26.000,1.552 25.552,2.000 25.000,2.000 ZM3.000,8.000 C2.448,8.000 2.000,7.552 2.000,7.000 C2.000,6.448 2.448,6.000 3.000,6.000 C3.000,6.000 11.000,6.000 11.000,6.000 C11.552,6.000 12.000,6.448 12.000,7.000 C12.000,7.552 11.552,8.000 11.000,8.000 C11.000,8.000 3.000,8.000 3.000,8.000 ZM1.000,12.000 C1.000,12.000 25.000,12.000 25.000,12.000 C25.552,12.000 26.000,12.448 26.000,13.000 C26.000,13.552 25.552,14.000 25.000,14.000 C25.000,14.000 1.000,14.000 1.000,14.000 C0.448,14.000 -0.000,13.552 -0.000,13.000 C-0.000,12.448 0.448,12.000 1.000,12.000 ZM3.000,18.000 C3.000,18.000 17.000,18.000 17.000,18.000 C17.552,18.000 18.000,18.448 18.000,19.000 C18.000,19.552 17.552,20.000 17.000,20.000 C17.000,20.000 3.000,20.000 3.000,20.000 C2.448,20.000 2.000,19.552 2.000,19.000 C2.000,18.448 2.448,18.000 3.000,18.000 ZM23.000,18.000 C23.000,18.000 37.000,18.000 37.000,18.000 C37.552,18.000 38.000,18.448 38.000,19.000 C38.000,19.552 37.552,20.000 37.000,20.000 C37.000,20.000 23.000,20.000 23.000,20.000 C22.448,20.000 22.000,19.552 22.000,19.000 C22.000,18.448 22.448,18.000 23.000,18.000 ZM17.000,8.000 C16.448,8.000 16.000,7.552 16.000,7.000 C16.000,6.448 16.448,6.000 17.000,6.000 C17.000,6.000 37.000,6.000 37.000,6.000 C37.552,6.000 38.000,6.448 38.000,7.000 C38.000,7.552 37.552,8.000 37.000,8.000 C37.000,8.000 17.000,8.000 17.000,8.000 ZM30.000,13.000 C30.000,12.448 30.448,12.000 31.000,12.000 C31.000,12.000 39.000,12.000 39.000,12.000 C39.552,12.000 40.000,12.448 40.000,13.000 C40.000,13.552 39.552,14.000 39.000,14.000 C39.000,14.000 31.000,14.000 31.000,14.000 C30.448,14.000 30.000,13.552 30.000,13.000 Z" id="path-1" class="cls-2" fill-rule="evenodd"/>
</svg>
