<svg xmlns="http://www.w3.org/2000/svg" xmlns:xlink="http://www.w3.org/1999/xlink" preserveAspectRatio="xMidYMid" width="49" height="46" viewBox="0 0 49 46">
  <defs>
    <style>

      .cls-2 {
        fill: #796886;
      }
    </style>
  </defs>
  <path d="M35.040,35.956 C35.033,35.956 34.290,35.957 33.055,35.958 C33.036,35.959 33.019,35.969 33.000,35.969 C32.448,35.969 32.000,35.521 32.000,34.969 C32.000,34.416 32.448,33.969 33.000,33.969 C33.000,33.969 33.000,33.969 33.000,33.969 C33.000,33.969 33.000,33.958 33.000,33.958 C34.255,33.958 35.002,33.957 35.002,33.957 C41.714,33.708 47.000,28.222 47.000,21.469 C47.000,14.576 41.391,8.969 34.498,8.969 C28.976,8.969 24.042,12.674 22.500,17.978 C22.420,18.253 22.226,18.481 21.967,18.603 C21.708,18.726 21.409,18.732 21.145,18.617 C20.144,18.187 19.082,17.969 17.988,17.969 C14.457,17.969 11.300,20.337 10.312,23.729 C10.232,24.004 10.038,24.231 9.780,24.354 C9.521,24.476 9.223,24.483 8.959,24.370 C8.339,24.104 7.680,23.970 7.001,23.970 C4.244,23.970 2.000,26.212 2.000,28.969 C2.000,31.726 4.244,33.969 7.001,33.969 C7.622,33.969 8.294,33.969 9.000,33.969 C9.000,33.969 9.000,33.969 9.000,33.969 C9.552,33.969 10.000,34.416 10.000,34.969 C10.000,35.521 9.552,35.969 9.000,35.969 C9.000,35.969 8.999,35.969 8.999,35.969 C8.294,35.969 7.622,35.969 7.001,35.969 C3.140,35.969 0.000,32.828 0.000,28.969 C0.000,26.612 1.180,24.533 2.971,23.264 C1.943,22.491 1.017,21.575 0.249,20.508 C0.024,20.193 0.000,19.778 0.189,19.440 C0.378,19.102 0.737,18.908 1.135,18.928 C1.135,18.928 1.298,18.940 1.298,18.940 C1.477,18.951 1.655,18.965 1.836,18.965 C7.943,18.965 12.911,14.028 12.911,7.960 C12.911,5.664 12.197,3.457 10.846,1.577 C10.620,1.263 10.596,0.847 10.785,0.510 C10.973,0.172 11.344,-0.031 11.729,-0.003 C18.144,0.399 23.235,5.393 23.889,11.617 C26.577,8.734 30.396,6.969 34.498,6.969 C42.494,6.969 49.000,13.473 49.000,21.469 C49.000,29.303 42.867,35.666 35.040,35.956 ZM13.618,2.307 C14.478,4.063 14.925,5.983 14.925,7.960 C14.925,14.662 9.797,20.197 3.235,20.893 C3.795,21.427 4.423,21.871 5.078,22.272 C5.693,22.095 6.329,21.970 7.001,21.970 C7.591,21.970 8.172,22.043 8.735,22.187 C10.255,18.480 13.923,15.969 17.988,15.969 C18.990,15.969 19.971,16.115 20.916,16.405 C21.182,15.694 21.502,15.012 21.870,14.362 C21.930,13.903 21.973,13.438 21.973,12.962 C21.973,7.864 18.437,3.518 13.618,2.307 ZM12.170,39.843 C12.744,40.174 12.941,40.908 12.610,41.482 C12.278,42.056 11.544,42.253 10.970,41.921 C10.396,41.590 10.200,40.856 10.531,40.282 C10.862,39.708 11.596,39.511 12.170,39.843 ZM15.592,33.916 C16.166,34.247 16.363,34.981 16.031,35.555 C15.700,36.129 14.966,36.326 14.392,35.994 C13.818,35.663 13.621,34.929 13.953,34.355 C14.284,33.781 15.018,33.585 15.592,33.916 ZM16.452,42.843 C17.025,43.174 17.222,43.908 16.891,44.482 C16.559,45.056 15.825,45.253 15.251,44.921 C14.678,44.590 14.481,43.856 14.812,43.282 C15.144,42.708 15.878,42.511 16.452,42.843 ZM18.998,28.016 C19.572,28.347 19.769,29.081 19.438,29.655 C19.106,30.229 18.372,30.426 17.798,30.095 C17.224,29.763 17.028,29.029 17.359,28.455 C17.691,27.881 18.424,27.685 18.998,28.016 ZM19.873,36.916 C20.447,37.247 20.644,37.981 20.313,38.555 C19.981,39.129 19.247,39.326 18.673,38.994 C18.099,38.663 17.903,37.929 18.234,37.355 C18.565,36.781 19.299,36.584 19.873,36.916 ZM23.280,31.016 C23.854,31.347 24.050,32.081 23.719,32.655 C23.388,33.229 22.654,33.426 22.080,33.094 C21.506,32.763 21.309,32.029 21.640,31.455 C21.972,30.881 22.706,30.685 23.280,31.016 ZM24.170,39.843 C24.744,40.174 24.941,40.908 24.609,41.482 C24.278,42.056 23.544,42.253 22.970,41.921 C22.396,41.590 22.200,40.856 22.531,40.282 C22.862,39.708 23.596,39.511 24.170,39.843 ZM27.592,33.916 C28.166,34.247 28.363,34.981 28.031,35.555 C27.700,36.129 26.966,36.326 26.392,35.994 C25.818,35.663 25.622,34.929 25.953,34.355 C26.284,33.781 27.018,33.585 27.592,33.916 ZM30.998,28.016 C31.572,28.347 31.769,29.081 31.438,29.655 C31.106,30.229 30.372,30.426 29.798,30.095 C29.224,29.763 29.028,29.029 29.359,28.455 C29.690,27.881 30.424,27.685 30.998,28.016 Z" id="path-1" class="cls-2" fill-rule="evenodd"/>
</svg>
