<svg xmlns="http://www.w3.org/2000/svg" xmlns:xlink="http://www.w3.org/1999/xlink" preserveAspectRatio="xMidYMid" width="54" height="49" viewBox="0 0 54 49">
  <defs>
    <style>

      .cls-2 {
        fill: #796886;
      }
    </style>
  </defs>
  <path d="M40.040,38.987 C40.033,38.987 39.290,38.988 38.055,38.989 C38.036,38.990 38.019,39.000 38.000,39.000 C37.448,39.000 37.000,38.552 37.000,38.000 C37.000,37.448 37.448,37.000 38.000,37.000 C38.000,37.000 38.000,37.000 38.000,37.000 C38.000,37.000 38.000,36.989 38.000,36.989 C39.255,36.989 40.002,36.988 40.002,36.988 C46.714,36.739 52.000,31.253 52.000,24.500 C52.000,17.608 46.391,12.000 39.498,12.000 C33.976,12.000 29.042,15.705 27.500,21.009 C27.420,21.284 27.226,21.512 26.967,21.634 C26.708,21.757 26.409,21.763 26.145,21.648 C25.144,21.218 24.082,21.000 22.988,21.000 C19.457,21.000 16.300,23.369 15.312,26.760 C15.232,27.036 15.038,27.262 14.780,27.385 C14.521,27.507 14.223,27.514 13.959,27.401 C13.339,27.135 12.680,27.001 12.001,27.001 C9.244,27.001 7.000,29.244 7.000,32.000 C7.000,34.757 9.244,37.000 12.001,37.000 C12.622,37.000 13.294,37.000 14.000,37.000 C14.000,37.000 14.000,37.000 14.000,37.000 C14.552,37.000 15.000,37.448 15.000,38.000 C15.000,38.552 14.552,39.000 14.000,39.000 C14.000,39.000 13.999,39.000 13.999,39.000 C13.294,39.000 12.622,39.000 12.001,39.000 C8.140,39.000 5.000,35.859 5.000,32.000 C5.000,28.341 7.833,25.363 11.416,25.060 C10.533,23.573 10.000,21.854 10.000,19.998 C10.000,14.475 14.478,9.998 20.001,9.998 C23.680,9.998 26.874,11.999 28.610,14.960 C31.309,11.894 35.250,10.000 39.498,10.000 C47.494,10.000 54.000,16.505 54.000,24.500 C54.000,32.334 47.867,38.697 40.040,38.987 ZM20.000,11.998 C15.582,11.998 12.000,15.580 12.000,19.998 C12.000,21.916 12.704,23.651 13.830,25.029 C15.397,21.429 18.995,19.000 22.988,19.000 C23.990,19.000 24.971,19.146 25.916,19.437 C26.275,18.475 26.739,17.570 27.282,16.723 C26.030,13.941 23.249,11.998 20.000,11.998 ZM29.899,11.514 C29.509,11.905 28.876,11.905 28.485,11.514 C28.095,11.124 28.095,10.491 28.485,10.100 C28.485,10.100 32.728,5.858 32.728,5.858 C33.118,5.467 33.751,5.467 34.142,5.858 C34.532,6.248 34.532,6.881 34.142,7.272 C34.142,7.272 29.899,11.514 29.899,11.514 ZM20.000,8.000 C19.448,8.000 19.000,7.552 19.000,7.000 C19.000,7.000 19.000,1.000 19.000,1.000 C19.000,0.448 19.448,-0.000 20.000,-0.000 C20.552,-0.000 21.000,0.448 21.000,1.000 C21.000,1.000 21.000,7.000 21.000,7.000 C21.000,7.552 20.552,8.000 20.000,8.000 ZM10.105,11.511 C10.105,11.511 5.863,7.269 5.863,7.269 C5.472,6.878 5.472,6.245 5.863,5.855 C6.253,5.464 6.886,5.464 7.277,5.855 C7.277,5.855 11.520,10.097 11.520,10.097 C11.910,10.488 11.910,11.121 11.520,11.511 C11.129,11.902 10.496,11.902 10.105,11.511 ZM8.003,19.998 C8.003,20.551 7.555,20.998 7.003,20.998 C7.003,20.998 1.003,20.998 1.003,20.998 C0.451,20.998 0.003,20.551 0.003,19.998 C0.003,19.446 0.451,18.998 1.003,18.998 C1.003,18.998 7.003,18.998 7.003,18.998 C7.555,18.998 8.003,19.446 8.003,19.998 ZM17.170,42.874 C17.744,43.205 17.941,43.939 17.609,44.513 C17.278,45.087 16.544,45.284 15.970,44.952 C15.396,44.621 15.200,43.887 15.531,43.313 C15.862,42.739 16.596,42.543 17.170,42.874 ZM20.592,36.947 C21.166,37.279 21.363,38.012 21.031,38.586 C20.700,39.160 19.966,39.357 19.392,39.026 C18.818,38.694 18.622,37.960 18.953,37.386 C19.284,36.812 20.018,36.616 20.592,36.947 ZM21.451,45.874 C22.025,46.205 22.222,46.939 21.891,47.513 C21.559,48.087 20.825,48.284 20.251,47.952 C19.678,47.621 19.481,46.887 19.812,46.313 C20.144,45.739 20.878,45.543 21.451,45.874 ZM23.998,31.047 C24.572,31.379 24.769,32.113 24.438,32.686 C24.106,33.260 23.372,33.457 22.798,33.126 C22.224,32.794 22.028,32.060 22.359,31.487 C22.690,30.913 23.424,30.716 23.998,31.047 ZM24.873,39.947 C25.447,40.278 25.644,41.012 25.313,41.586 C24.981,42.160 24.247,42.357 23.673,42.026 C23.099,41.694 22.903,40.960 23.234,40.386 C23.565,39.812 24.299,39.616 24.873,39.947 ZM28.280,34.047 C28.854,34.379 29.050,35.113 28.719,35.687 C28.387,36.261 27.654,36.457 27.080,36.126 C26.506,35.794 26.309,35.061 26.640,34.487 C26.972,33.913 27.706,33.716 28.280,34.047 ZM29.170,42.874 C29.744,43.205 29.941,43.939 29.609,44.513 C29.278,45.087 28.544,45.284 27.970,44.952 C27.396,44.621 27.200,43.887 27.531,43.313 C27.862,42.739 28.596,42.543 29.170,42.874 ZM32.592,36.947 C33.166,37.279 33.363,38.012 33.031,38.586 C32.700,39.160 31.966,39.357 31.392,39.026 C30.818,38.694 30.621,37.960 30.953,37.386 C31.284,36.812 32.018,36.616 32.592,36.947 ZM35.998,31.047 C36.572,31.379 36.769,32.113 36.438,32.686 C36.106,33.260 35.372,33.457 34.798,33.126 C34.224,32.794 34.028,32.060 34.359,31.487 C34.690,30.913 35.424,30.716 35.998,31.047 Z" id="path-1" class="cls-2" fill-rule="evenodd"/>
</svg>
