<svg xmlns="http://www.w3.org/2000/svg" xmlns:xlink="http://www.w3.org/1999/xlink" preserveAspectRatio="xMidYMid" width="49" height="39" viewBox="0 0 49 39">
  <defs>
    <style>

      .cls-2 {
        fill: #796886;
      }
    </style>
  </defs>
  <path d="M35.040,28.987 C35.033,28.987 34.290,28.988 33.055,28.989 C33.036,28.990 33.019,29.000 33.000,29.000 C32.448,29.000 32.000,28.552 32.000,28.000 C32.000,27.448 32.448,27.000 33.000,27.000 C33.000,27.000 33.000,27.000 33.000,27.000 C33.000,27.000 33.000,26.989 33.000,26.989 C34.255,26.989 35.002,26.988 35.002,26.988 C41.714,26.739 47.000,21.253 47.000,14.500 C47.000,7.608 41.391,2.000 34.498,2.000 C28.976,2.000 24.042,5.705 22.500,11.009 C22.420,11.284 22.226,11.512 21.967,11.634 C21.708,11.757 21.409,11.763 21.145,11.648 C20.144,11.218 19.082,11.000 17.988,11.000 C14.457,11.000 11.300,13.369 10.312,16.760 C10.232,17.035 10.038,17.262 9.780,17.385 C9.521,17.507 9.223,17.514 8.959,17.401 C8.339,17.135 7.680,17.001 7.001,17.001 C4.244,17.001 2.000,19.244 2.000,22.000 C2.000,24.757 4.244,27.000 7.001,27.000 C7.622,27.000 8.294,27.000 9.000,27.000 C9.000,27.000 9.000,27.000 9.000,27.000 C9.552,27.000 10.000,27.448 10.000,28.000 C10.000,28.552 9.552,29.000 9.000,29.000 C9.000,29.000 8.999,29.000 8.999,29.000 C8.294,29.000 7.622,29.000 7.001,29.000 C3.140,29.000 0.000,25.859 0.000,22.000 C0.000,18.141 3.140,15.001 7.001,15.001 C7.591,15.001 8.172,15.074 8.735,15.218 C10.255,11.511 13.923,9.000 17.988,9.000 C18.990,9.000 19.971,9.146 20.916,9.437 C23.010,3.830 28.449,-0.000 34.498,-0.000 C42.494,-0.000 49.000,6.504 49.000,14.500 C49.000,22.334 42.867,28.697 35.040,28.987 ZM12.170,32.874 C12.744,33.205 12.941,33.939 12.609,34.513 C12.278,35.087 11.544,35.284 10.970,34.952 C10.396,34.621 10.200,33.887 10.531,33.313 C10.862,32.739 11.596,32.543 12.170,32.874 ZM15.592,26.947 C16.166,27.278 16.363,28.012 16.031,28.586 C15.700,29.160 14.966,29.357 14.392,29.026 C13.818,28.694 13.621,27.960 13.953,27.386 C14.284,26.812 15.018,26.616 15.592,26.947 ZM16.452,35.874 C17.025,36.205 17.222,36.939 16.891,37.513 C16.559,38.087 15.825,38.284 15.251,37.952 C14.678,37.621 14.481,36.887 14.812,36.313 C15.144,35.739 15.877,35.543 16.452,35.874 ZM18.998,21.047 C19.572,21.379 19.769,22.113 19.438,22.687 C19.106,23.261 18.372,23.457 17.798,23.126 C17.224,22.794 17.028,22.060 17.359,21.487 C17.691,20.912 18.424,20.716 18.998,21.047 ZM19.873,29.947 C20.447,30.278 20.644,31.012 20.313,31.586 C19.981,32.160 19.247,32.357 18.673,32.026 C18.099,31.694 17.903,30.960 18.234,30.386 C18.565,29.812 19.299,29.616 19.873,29.947 ZM23.280,24.047 C23.854,24.379 24.050,25.113 23.719,25.687 C23.387,26.260 22.654,26.457 22.080,26.126 C21.506,25.794 21.309,25.060 21.640,24.487 C21.972,23.912 22.706,23.716 23.280,24.047 ZM24.170,32.874 C24.744,33.205 24.941,33.939 24.609,34.513 C24.278,35.087 23.544,35.284 22.970,34.952 C22.396,34.621 22.200,33.887 22.531,33.313 C22.862,32.739 23.596,32.543 24.170,32.874 ZM27.592,26.947 C28.166,27.278 28.363,28.012 28.031,28.586 C27.700,29.160 26.966,29.357 26.392,29.026 C25.818,28.694 25.622,27.960 25.953,27.386 C26.284,26.812 27.018,26.616 27.592,26.947 ZM30.998,21.047 C31.572,21.379 31.769,22.113 31.438,22.687 C31.106,23.261 30.372,23.457 29.798,23.126 C29.224,22.794 29.028,22.060 29.359,21.487 C29.690,20.912 30.424,20.716 30.998,21.047 Z" id="path-1" class="cls-2" fill-rule="evenodd"/>
</svg>
