<svg xmlns="http://www.w3.org/2000/svg" xmlns:xlink="http://www.w3.org/1999/xlink" preserveAspectRatio="xMidYMid" width="54" height="49" viewBox="0 0 54 49">
  <defs>
    <style>

      .cls-2 {
        fill: #796886;
      }
    </style>
  </defs>
  <path d="M40.040,38.987 C40.033,38.987 39.290,38.988 38.054,38.989 C38.035,38.990 38.019,39.000 38.000,39.000 C37.448,39.000 37.000,38.552 37.000,38.000 C37.000,37.448 37.448,37.000 38.000,37.000 C38.000,37.000 38.000,37.000 38.000,37.000 C38.000,37.000 38.000,36.989 38.000,36.989 C39.255,36.989 40.002,36.988 40.002,36.988 C46.714,36.739 52.000,31.253 52.000,24.500 C52.000,17.608 46.391,12.000 39.498,12.000 C33.976,12.000 29.042,15.705 27.500,21.009 C27.420,21.284 27.226,21.512 26.967,21.634 C26.708,21.757 26.409,21.763 26.145,21.648 C25.144,21.218 24.082,21.000 22.988,21.000 C19.457,21.000 16.300,23.369 15.312,26.760 C15.232,27.036 15.038,27.262 14.780,27.385 C14.521,27.507 14.223,27.514 13.959,27.401 C13.339,27.135 12.680,27.001 12.001,27.001 C9.244,27.001 7.000,29.243 7.000,32.000 C7.000,34.757 9.244,37.000 12.001,37.000 C12.622,37.000 13.294,37.000 14.000,37.000 C14.000,37.000 14.000,37.000 14.000,37.000 C14.552,37.000 15.000,37.448 15.000,38.000 C15.000,38.552 14.552,39.000 14.000,39.000 C14.000,39.000 13.999,39.000 13.999,39.000 C13.294,39.000 12.622,39.000 12.001,39.000 C8.140,39.000 5.000,35.859 5.000,32.000 C5.000,28.341 7.833,25.363 11.416,25.060 C10.533,23.573 10.000,21.854 10.000,19.998 C10.000,14.475 14.478,9.998 20.001,9.998 C23.680,9.998 26.874,11.999 28.610,14.960 C31.309,11.894 35.251,10.000 39.498,10.000 C47.494,10.000 54.000,16.504 54.000,24.500 C54.000,32.334 47.868,38.697 40.040,38.987 ZM20.000,11.998 C15.582,11.998 12.000,15.580 12.000,19.998 C12.000,21.916 12.705,23.651 13.830,25.029 C15.397,21.429 18.995,19.000 22.988,19.000 C23.990,19.000 24.971,19.146 25.916,19.437 C26.275,18.475 26.739,17.570 27.282,16.723 C26.030,13.941 23.249,11.998 20.000,11.998 ZM29.899,11.515 C29.509,11.905 28.876,11.905 28.485,11.515 C28.095,11.124 28.095,10.491 28.485,10.100 C28.485,10.100 32.728,5.858 32.728,5.858 C33.118,5.467 33.751,5.467 34.142,5.858 C34.533,6.248 34.533,6.881 34.142,7.272 C34.142,7.272 29.899,11.515 29.899,11.515 ZM20.000,8.000 C19.448,8.000 19.000,7.552 19.000,7.000 C19.000,7.000 19.000,1.000 19.000,1.000 C19.000,0.448 19.448,-0.000 20.000,-0.000 C20.552,-0.000 21.000,0.448 21.000,1.000 C21.000,1.000 21.000,7.000 21.000,7.000 C21.000,7.552 20.552,8.000 20.000,8.000 ZM10.105,11.511 C10.105,11.511 5.863,7.269 5.863,7.269 C5.472,6.878 5.472,6.245 5.863,5.855 C6.253,5.464 6.886,5.464 7.277,5.855 C7.277,5.855 11.520,10.097 11.520,10.097 C11.910,10.488 11.910,11.121 11.520,11.511 C11.129,11.902 10.496,11.902 10.105,11.511 ZM8.003,19.999 C8.003,20.551 7.555,20.999 7.003,20.999 C7.003,20.999 1.003,20.999 1.003,20.999 C0.451,20.999 0.003,20.551 0.003,19.999 C0.003,19.446 0.451,18.999 1.003,18.999 C1.003,18.999 7.003,18.999 7.003,18.999 C7.555,18.999 8.003,19.446 8.003,19.999 ZM18.007,41.466 C17.651,42.878 17.864,43.695 17.366,44.562 C17.091,45.040 16.487,45.207 16.016,44.934 C15.545,44.660 15.386,44.051 15.661,43.572 C16.159,42.705 16.969,42.482 18.007,41.466 ZM20.994,36.265 C20.638,37.676 20.851,38.493 20.354,39.360 C20.079,39.839 19.474,40.006 19.003,39.732 C18.532,39.459 18.373,38.849 18.648,38.370 C19.146,37.503 19.956,37.280 20.994,36.265 ZM22.272,44.466 C21.916,45.878 22.129,46.695 21.631,47.562 C21.356,48.040 20.752,48.207 20.281,47.934 C19.810,47.660 19.651,47.051 19.926,46.572 C20.424,45.705 21.234,45.482 22.272,44.466 ZM21.635,33.169 C22.133,32.302 22.944,32.079 23.982,31.063 C23.626,32.475 23.839,33.292 23.341,34.159 C23.066,34.638 22.461,34.804 21.990,34.531 C21.519,34.257 21.361,33.648 21.635,33.169 ZM25.259,39.265 C24.903,40.676 25.116,41.493 24.618,42.360 C24.343,42.839 23.739,43.006 23.268,42.732 C22.797,42.459 22.638,41.849 22.913,41.370 C23.411,40.503 24.221,40.280 25.259,39.265 ZM28.247,34.063 C27.891,35.475 28.104,36.292 27.606,37.159 C27.331,37.638 26.726,37.804 26.255,37.531 C25.784,37.257 25.625,36.648 25.900,36.169 C26.398,35.302 27.209,35.079 28.247,34.063 ZM30.007,41.466 C29.651,42.878 29.864,43.695 29.366,44.562 C29.091,45.040 28.487,45.207 28.016,44.934 C27.545,44.660 27.386,44.051 27.661,43.572 C28.159,42.705 28.969,42.482 30.007,41.466 ZM32.994,36.265 C32.639,37.676 32.851,38.493 32.354,39.360 C32.079,39.839 31.474,40.006 31.003,39.732 C30.532,39.459 30.373,38.849 30.648,38.370 C31.146,37.503 31.956,37.280 32.994,36.265 ZM35.982,31.063 C35.626,32.475 35.839,33.292 35.341,34.159 C35.066,34.638 34.461,34.804 33.990,34.531 C33.519,34.257 33.361,33.648 33.635,33.169 C34.133,32.302 34.944,32.079 35.982,31.063 Z" id="path-1" class="cls-2" fill-rule="evenodd"/>
</svg>
