<svg xmlns="http://www.w3.org/2000/svg" xmlns:xlink="http://www.w3.org/1999/xlink" preserveAspectRatio="xMidYMid" width="49" height="39" viewBox="0 0 49 39">
  <defs>
    <style>

      .cls-2 {
        fill: #796886;
      }
    </style>
  </defs>
  <path d="M35.040,28.987 C35.033,28.987 34.290,28.988 33.054,28.989 C33.035,28.990 33.019,29.000 33.000,29.000 C32.448,29.000 32.000,28.552 32.000,28.000 C32.000,27.448 32.448,27.000 33.000,27.000 C33.000,27.000 33.000,27.000 33.000,27.000 C33.000,27.000 33.000,26.989 33.000,26.989 C34.255,26.989 35.002,26.988 35.002,26.988 C41.714,26.739 47.000,21.253 47.000,14.500 C47.000,7.608 41.391,2.000 34.498,2.000 C28.976,2.000 24.042,5.705 22.500,11.009 C22.420,11.284 22.226,11.512 21.967,11.634 C21.708,11.757 21.409,11.763 21.145,11.648 C20.144,11.218 19.082,11.000 17.988,11.000 C14.457,11.000 11.300,13.369 10.312,16.760 C10.232,17.035 10.038,17.262 9.780,17.385 C9.521,17.507 9.223,17.514 8.959,17.401 C8.339,17.135 7.680,17.001 7.001,17.001 C4.244,17.001 2.000,19.243 2.000,22.000 C2.000,24.757 4.244,27.000 7.001,27.000 C7.622,27.000 8.294,27.000 9.000,27.000 C9.000,27.000 9.000,27.000 9.000,27.000 C9.552,27.000 10.000,27.448 10.000,28.000 C10.000,28.552 9.552,29.000 9.000,29.000 C9.000,29.000 8.999,29.000 8.999,29.000 C8.294,29.000 7.622,29.000 7.001,29.000 C3.140,29.000 0.000,25.859 0.000,22.000 C0.000,18.141 3.140,15.001 7.001,15.001 C7.591,15.001 8.172,15.074 8.735,15.218 C10.255,11.511 13.923,9.000 17.988,9.000 C18.990,9.000 19.971,9.147 20.916,9.437 C23.010,3.830 28.449,-0.000 34.498,-0.000 C42.494,-0.000 49.000,6.505 49.000,14.500 C49.000,22.334 42.867,28.697 35.040,28.987 ZM13.007,31.466 C12.651,32.878 12.864,33.695 12.366,34.562 C12.091,35.040 11.487,35.207 11.016,34.933 C10.545,34.660 10.386,34.051 10.661,33.572 C11.159,32.705 11.969,32.482 13.007,31.466 ZM15.994,26.265 C15.639,27.676 15.851,28.493 15.353,29.360 C15.079,29.839 14.474,30.006 14.003,29.732 C13.532,29.459 13.373,28.849 13.648,28.370 C14.146,27.503 14.956,27.280 15.994,26.265 ZM17.272,34.466 C16.916,35.878 17.129,36.695 16.631,37.562 C16.356,38.040 15.751,38.207 15.281,37.934 C14.810,37.660 14.651,37.050 14.926,36.572 C15.424,35.705 16.234,35.482 17.272,34.466 ZM16.635,23.169 C17.133,22.302 17.944,22.079 18.982,21.063 C18.626,22.475 18.839,23.292 18.341,24.159 C18.066,24.638 17.461,24.804 16.990,24.531 C16.519,24.258 16.360,23.648 16.635,23.169 ZM20.259,29.265 C19.903,30.676 20.116,31.493 19.618,32.360 C19.343,32.839 18.739,33.006 18.268,32.732 C17.797,32.459 17.638,31.849 17.913,31.370 C18.411,30.503 19.221,30.280 20.259,29.265 ZM23.247,24.063 C22.891,25.475 23.104,26.292 22.606,27.159 C22.331,27.638 21.726,27.804 21.255,27.531 C20.784,27.257 20.625,26.648 20.900,26.169 C21.398,25.302 22.209,25.079 23.247,24.063 ZM25.007,31.466 C24.651,32.878 24.864,33.695 24.366,34.562 C24.091,35.040 23.487,35.207 23.016,34.933 C22.545,34.660 22.386,34.051 22.661,33.572 C23.159,32.705 23.969,32.482 25.007,31.466 ZM27.994,26.265 C27.639,27.676 27.851,28.493 27.354,29.360 C27.079,29.839 26.474,30.006 26.003,29.732 C25.532,29.459 25.373,28.849 25.648,28.370 C26.146,27.503 26.956,27.280 27.994,26.265 ZM30.982,21.063 C30.626,22.475 30.839,23.292 30.341,24.159 C30.066,24.638 29.461,24.804 28.990,24.531 C28.519,24.258 28.360,23.648 28.635,23.169 C29.133,22.302 29.944,22.079 30.982,21.063 Z" id="path-1" class="cls-2" fill-rule="evenodd"/>
</svg>
