<svg xmlns="http://www.w3.org/2000/svg" xmlns:xlink="http://www.w3.org/1999/xlink" preserveAspectRatio="xMidYMid" width="49" height="46" viewBox="0 0 49 46">
  <defs>
    <style>

      .cls-2 {
        fill: #796886;
      }
    </style>
  </defs>
  <path d="M35.040,35.956 C35.033,35.956 34.290,35.957 33.054,35.958 C33.035,35.959 33.019,35.969 33.000,35.969 C32.448,35.969 32.000,35.521 32.000,34.969 C32.000,34.416 32.448,33.969 33.000,33.969 C33.000,33.969 33.000,33.969 33.000,33.969 C33.000,33.969 33.000,33.958 33.000,33.958 C34.255,33.958 35.002,33.957 35.002,33.957 C41.714,33.708 47.000,28.222 47.000,21.469 C47.000,14.576 41.391,8.969 34.498,8.969 C28.976,8.969 24.042,12.673 22.500,17.978 C22.420,18.253 22.226,18.481 21.967,18.603 C21.708,18.726 21.409,18.732 21.145,18.617 C20.144,18.187 19.082,17.969 17.988,17.969 C14.457,17.969 11.300,20.337 10.312,23.729 C10.232,24.004 10.038,24.231 9.780,24.354 C9.521,24.476 9.223,24.483 8.959,24.370 C8.339,24.104 7.680,23.970 7.001,23.970 C4.244,23.970 2.000,26.212 2.000,28.969 C2.000,31.726 4.244,33.969 7.001,33.969 C7.622,33.969 8.294,33.969 9.000,33.969 C9.000,33.969 9.000,33.969 9.000,33.969 C9.552,33.969 10.000,34.416 10.000,34.969 C10.000,35.521 9.552,35.969 9.000,35.969 C9.000,35.969 8.999,35.968 8.999,35.968 C8.294,35.969 7.622,35.969 7.001,35.969 C3.140,35.969 0.000,32.828 0.000,28.969 C0.000,26.612 1.180,24.533 2.971,23.264 C1.943,22.491 1.017,21.575 0.249,20.508 C0.024,20.193 0.000,19.778 0.189,19.440 C0.378,19.102 0.737,18.908 1.135,18.928 C1.135,18.928 1.298,18.940 1.298,18.940 C1.477,18.951 1.655,18.965 1.836,18.965 C7.943,18.965 12.911,14.028 12.911,7.960 C12.911,5.664 12.197,3.456 10.846,1.577 C10.620,1.263 10.596,0.847 10.785,0.510 C10.973,0.172 11.344,-0.031 11.729,-0.003 C18.144,0.399 23.235,5.393 23.889,11.617 C26.577,8.734 30.396,6.969 34.498,6.969 C42.494,6.969 49.000,13.473 49.000,21.469 C49.000,29.303 42.868,35.666 35.040,35.956 ZM21.973,12.962 C21.973,7.864 18.437,3.518 13.618,2.307 C14.478,4.063 14.925,5.983 14.925,7.960 C14.925,14.662 9.797,20.197 3.235,20.893 C3.795,21.427 4.423,21.871 5.078,22.272 C5.693,22.095 6.329,21.970 7.001,21.970 C7.591,21.970 8.172,22.043 8.735,22.187 C10.255,18.479 13.923,15.969 17.988,15.969 C18.990,15.969 19.971,16.115 20.916,16.405 C21.182,15.694 21.502,15.012 21.870,14.362 C21.930,13.903 21.973,13.438 21.973,12.962 ZM13.007,38.435 C12.651,39.846 12.864,40.663 12.366,41.530 C12.091,42.009 11.487,42.176 11.016,41.902 C10.545,41.629 10.386,41.019 10.661,40.540 C11.159,39.674 11.969,39.450 13.007,38.435 ZM15.994,33.233 C15.639,34.645 15.851,35.462 15.353,36.329 C15.079,36.808 14.474,36.974 14.003,36.701 C13.532,36.428 13.373,35.818 13.648,35.339 C14.146,34.472 14.956,34.249 15.994,33.233 ZM17.272,41.435 C16.916,42.846 17.129,43.664 16.631,44.530 C16.356,45.009 15.751,45.176 15.281,44.902 C14.810,44.629 14.651,44.019 14.926,43.540 C15.424,42.674 16.234,42.450 17.272,41.435 ZM16.635,30.138 C17.133,29.271 17.944,29.048 18.982,28.032 C18.626,29.444 18.839,30.261 18.341,31.128 C18.066,31.606 17.461,31.773 16.990,31.500 C16.519,31.226 16.361,30.617 16.635,30.138 ZM20.259,36.233 C19.903,37.645 20.116,38.462 19.618,39.329 C19.343,39.808 18.739,39.974 18.268,39.701 C17.797,39.428 17.638,38.818 17.913,38.339 C18.411,37.472 19.221,37.249 20.259,36.233 ZM23.247,31.032 C22.891,32.444 23.104,33.261 22.606,34.128 C22.331,34.606 21.726,34.773 21.255,34.500 C20.784,34.226 20.625,33.617 20.900,33.138 C21.398,32.271 22.209,32.048 23.247,31.032 ZM25.007,38.435 C24.651,39.846 24.864,40.663 24.366,41.530 C24.091,42.009 23.487,42.176 23.016,41.902 C22.545,41.629 22.386,41.019 22.661,40.540 C23.159,39.674 23.969,39.450 25.007,38.435 ZM27.994,33.233 C27.639,34.645 27.851,35.462 27.354,36.329 C27.079,36.808 26.474,36.974 26.003,36.701 C25.532,36.428 25.373,35.818 25.648,35.339 C26.146,34.472 26.956,34.249 27.994,33.233 ZM30.982,28.032 C30.626,29.444 30.839,30.261 30.341,31.128 C30.066,31.606 29.461,31.773 28.990,31.500 C28.519,31.226 28.360,30.617 28.635,30.138 C29.133,29.271 29.944,29.048 30.982,28.032 Z" id="path-1" class="cls-2" fill-rule="evenodd"/>
</svg>
