<svg xmlns="http://www.w3.org/2000/svg" xmlns:xlink="http://www.w3.org/1999/xlink" preserveAspectRatio="xMidYMid" width="24" height="26" viewBox="0 0 24 26">
  <defs>
    <style>

      .cls-2 {
        fill: #796886;
      }
    </style>
  </defs>
  <path d="M10.835,25.968 C6.626,25.968 2.645,23.927 0.187,20.508 C-0.039,20.193 -0.062,19.778 0.127,19.440 C0.316,19.102 0.675,18.908 1.072,18.928 C1.072,18.928 1.236,18.940 1.236,18.940 C1.415,18.951 1.592,18.965 1.774,18.965 C7.881,18.965 12.849,14.028 12.849,7.960 C12.849,5.664 12.135,3.456 10.784,1.577 C10.557,1.263 10.534,0.847 10.722,0.510 C10.911,0.172 11.282,-0.031 11.666,-0.003 C18.540,0.427 23.924,6.122 23.924,12.962 C23.924,20.134 18.052,25.968 10.835,25.968 ZM3.173,20.893 C5.219,22.845 7.964,23.967 10.835,23.967 C16.942,23.967 21.910,19.030 21.910,12.962 C21.910,7.864 18.375,3.518 13.556,2.307 C14.415,4.063 14.863,5.983 14.863,7.960 C14.863,14.662 9.735,20.197 3.173,20.893 Z" id="path-1" class="cls-2" fill-rule="evenodd"/>
</svg>
