<svg xmlns="http://www.w3.org/2000/svg" xmlns:xlink="http://www.w3.org/1999/xlink" preserveAspectRatio="xMidYMid" width="49" height="46" viewBox="0 0 49 46">
  <defs>
    <style>

      .cls-2 {
        fill: #796886;
      }
    </style>
  </defs>
  <path d="M35.040,35.956 C35.033,35.956 34.290,35.957 33.055,35.958 C33.036,35.959 33.019,35.969 33.000,35.969 C32.448,35.969 32.000,35.521 32.000,34.969 C32.000,34.416 32.448,33.969 33.000,33.969 C33.000,33.969 33.000,33.969 33.000,33.969 C33.000,33.969 33.000,33.958 33.000,33.958 C34.255,33.958 35.002,33.957 35.002,33.957 C41.714,33.708 47.000,28.222 47.000,21.469 C47.000,14.576 41.391,8.969 34.498,8.969 C28.976,8.969 24.042,12.674 22.500,17.978 C22.420,18.253 22.226,18.481 21.967,18.603 C21.708,18.726 21.409,18.732 21.145,18.617 C20.144,18.187 19.082,17.969 17.988,17.969 C14.457,17.969 11.300,20.337 10.312,23.729 C10.232,24.004 10.038,24.231 9.780,24.354 C9.521,24.476 9.223,24.483 8.959,24.369 C8.339,24.104 7.680,23.970 7.001,23.970 C4.244,23.970 2.000,26.212 2.000,28.969 C2.000,31.726 4.244,33.969 7.001,33.969 C7.622,33.969 8.294,33.969 9.000,33.969 C9.000,33.969 9.000,33.969 9.000,33.969 C9.552,33.969 10.000,34.416 10.000,34.969 C10.000,35.521 9.552,35.969 9.000,35.969 C9.000,35.969 8.999,35.969 8.999,35.969 C8.294,35.969 7.622,35.969 7.001,35.969 C3.140,35.969 0.000,32.828 0.000,28.969 C0.000,26.612 1.180,24.533 2.971,23.264 C1.943,22.491 1.017,21.575 0.249,20.508 C0.024,20.193 0.000,19.778 0.189,19.440 C0.378,19.102 0.737,18.908 1.135,18.928 C1.135,18.928 1.298,18.940 1.298,18.940 C1.477,18.951 1.655,18.965 1.836,18.965 C7.943,18.965 12.911,14.028 12.911,7.960 C12.911,5.663 12.197,3.457 10.846,1.577 C10.620,1.263 10.596,0.847 10.785,0.510 C10.973,0.172 11.344,-0.031 11.729,-0.003 C18.144,0.399 23.235,5.393 23.889,11.617 C26.577,8.734 30.396,6.969 34.498,6.969 C42.494,6.969 49.000,13.473 49.000,21.469 C49.000,29.303 42.868,35.666 35.040,35.956 ZM13.618,2.307 C14.478,4.063 14.925,5.983 14.925,7.960 C14.925,14.662 9.797,20.197 3.235,20.893 C3.795,21.427 4.423,21.871 5.078,22.272 C5.693,22.095 6.329,21.970 7.001,21.970 C7.591,21.970 8.172,22.043 8.735,22.187 C10.255,18.480 13.923,15.969 17.988,15.969 C18.990,15.969 19.971,16.115 20.916,16.405 C21.182,15.694 21.502,15.012 21.870,14.362 C21.930,13.903 21.973,13.438 21.973,12.962 C21.973,7.864 18.437,3.518 13.618,2.307 ZM11.634,38.799 C11.910,38.321 12.522,38.156 13.000,38.433 C13.478,38.709 13.642,39.321 13.366,39.799 C13.366,39.799 12.366,41.531 12.366,41.531 C12.090,42.009 11.478,42.173 11.000,41.897 C10.522,41.621 10.358,41.009 10.634,40.531 C10.634,40.531 11.634,38.799 11.634,38.799 ZM14.634,33.603 C14.910,33.124 15.522,32.961 16.000,33.237 C16.478,33.513 16.642,34.124 16.366,34.603 C16.366,34.603 15.366,36.335 15.366,36.335 C15.090,36.813 14.478,36.977 14.000,36.701 C13.522,36.425 13.358,35.813 13.634,35.335 C13.634,35.335 14.634,33.603 14.634,33.603 ZM15.888,41.799 C16.164,41.320 16.776,41.157 17.254,41.433 C17.733,41.709 17.896,42.320 17.620,42.799 C17.620,42.799 16.620,44.531 16.620,44.531 C16.344,45.009 15.733,45.173 15.254,44.897 C14.776,44.621 14.612,44.009 14.888,43.531 C14.888,43.531 15.888,41.799 15.888,41.799 ZM17.000,31.505 C16.522,31.228 16.358,30.617 16.634,30.138 C16.634,30.138 17.634,28.406 17.634,28.406 C17.910,27.928 18.522,27.764 19.000,28.040 C19.478,28.317 19.642,28.928 19.366,29.406 C19.366,29.406 18.366,31.138 18.366,31.138 C18.090,31.617 17.478,31.781 17.000,31.505 ZM18.888,36.603 C19.164,36.124 19.776,35.960 20.254,36.237 C20.733,36.513 20.896,37.124 20.620,37.603 C20.620,37.603 19.620,39.335 19.620,39.335 C19.344,39.813 18.733,39.977 18.254,39.701 C17.776,39.425 17.612,38.813 17.888,38.335 C17.888,38.335 18.888,36.603 18.888,36.603 ZM21.888,31.406 C22.164,30.928 22.776,30.764 23.254,31.040 C23.733,31.317 23.896,31.928 23.620,32.406 C23.620,32.406 22.620,34.139 22.620,34.139 C22.344,34.617 21.733,34.781 21.254,34.505 C20.776,34.228 20.612,33.617 20.888,33.138 C20.888,33.138 21.888,31.406 21.888,31.406 ZM23.634,38.799 C23.910,38.321 24.522,38.156 25.000,38.433 C25.478,38.709 25.642,39.321 25.366,39.799 C25.366,39.799 24.366,41.531 24.366,41.531 C24.090,42.009 23.478,42.173 23.000,41.897 C22.522,41.621 22.358,41.009 22.634,40.531 C22.634,40.531 23.634,38.799 23.634,38.799 ZM26.634,33.603 C26.910,33.124 27.522,32.961 28.000,33.237 C28.478,33.513 28.642,34.124 28.366,34.603 C28.366,34.603 27.366,36.335 27.366,36.335 C27.090,36.813 26.478,36.977 26.000,36.701 C25.522,36.425 25.358,35.813 25.634,35.335 C25.634,35.335 26.634,33.603 26.634,33.603 ZM29.634,28.406 C29.910,27.928 30.522,27.764 31.000,28.040 C31.478,28.317 31.642,28.928 31.366,29.406 C31.366,29.406 30.366,31.138 30.366,31.138 C30.090,31.617 29.478,31.781 29.000,31.505 C28.522,31.228 28.358,30.617 28.634,30.138 C28.634,30.138 29.634,28.406 29.634,28.406 Z" id="path-1" class="cls-2" fill-rule="evenodd"/>
</svg>
