<svg xmlns="http://www.w3.org/2000/svg" xmlns:xlink="http://www.w3.org/1999/xlink" preserveAspectRatio="xMidYMid" width="54" height="49" viewBox="0 0 54 49">
  <defs>
    <style>

      .cls-2 {
        fill: #796886;
      }
    </style>
  </defs>
  <path d="M40.040,38.987 C40.033,38.987 39.290,38.988 38.055,38.989 C38.036,38.990 38.019,39.000 38.000,39.000 C37.448,39.000 37.000,38.552 37.000,38.000 C37.000,37.448 37.448,37.000 38.000,37.000 C38.000,37.000 38.000,37.000 38.000,37.000 C38.000,37.000 38.000,36.989 38.000,36.989 C39.255,36.989 40.002,36.988 40.002,36.988 C46.714,36.739 52.000,31.253 52.000,24.500 C52.000,17.608 46.391,12.000 39.498,12.000 C33.976,12.000 29.042,15.705 27.500,21.009 C27.420,21.284 27.226,21.512 26.967,21.634 C26.708,21.757 26.409,21.763 26.145,21.648 C25.144,21.218 24.082,21.000 22.988,21.000 C19.457,21.000 16.300,23.369 15.312,26.760 C15.232,27.035 15.038,27.262 14.780,27.385 C14.521,27.507 14.223,27.514 13.959,27.401 C13.339,27.135 12.680,27.001 12.001,27.001 C9.244,27.001 7.000,29.244 7.000,32.000 C7.000,34.757 9.244,37.000 12.001,37.000 C12.622,37.000 13.294,37.000 14.000,37.000 C14.000,37.000 14.000,37.000 14.000,37.000 C14.552,37.000 15.000,37.448 15.000,38.000 C15.000,38.552 14.552,39.000 14.000,39.000 C14.000,39.000 13.999,39.000 13.999,39.000 C13.294,39.000 12.622,39.000 12.001,39.000 C8.140,39.000 5.000,35.859 5.000,32.000 C5.000,28.341 7.833,25.363 11.416,25.060 C10.533,23.573 10.000,21.854 10.000,19.998 C10.000,14.475 14.478,9.998 20.001,9.998 C23.680,9.998 26.874,11.999 28.610,14.960 C31.309,11.894 35.251,10.000 39.498,10.000 C47.494,10.000 54.000,16.504 54.000,24.500 C54.000,32.334 47.868,38.697 40.040,38.987 ZM20.000,11.998 C15.582,11.998 12.000,15.580 12.000,19.998 C12.000,21.916 12.705,23.651 13.830,25.029 C15.397,21.429 18.995,19.000 22.988,19.000 C23.990,19.000 24.971,19.147 25.916,19.437 C26.275,18.475 26.739,17.570 27.282,16.723 C26.030,13.941 23.249,11.998 20.000,11.998 ZM29.899,11.515 C29.509,11.905 28.876,11.905 28.485,11.515 C28.095,11.124 28.095,10.491 28.485,10.100 C28.485,10.100 32.728,5.858 32.728,5.858 C33.118,5.467 33.751,5.467 34.142,5.858 C34.533,6.248 34.533,6.881 34.142,7.272 C34.142,7.272 29.899,11.515 29.899,11.515 ZM20.000,8.000 C19.448,8.000 19.000,7.552 19.000,7.000 C19.000,7.000 19.000,1.000 19.000,1.000 C19.000,0.448 19.448,-0.000 20.000,-0.000 C20.552,-0.000 21.000,0.448 21.000,1.000 C21.000,1.000 21.000,7.000 21.000,7.000 C21.000,7.552 20.552,8.000 20.000,8.000 ZM10.105,11.511 C10.105,11.511 5.863,7.269 5.863,7.269 C5.472,6.878 5.472,6.245 5.863,5.855 C6.253,5.464 6.886,5.464 7.277,5.855 C7.277,5.855 11.520,10.097 11.520,10.097 C11.910,10.488 11.910,11.121 11.520,11.511 C11.129,11.902 10.496,11.902 10.105,11.511 ZM8.003,19.999 C8.003,20.551 7.555,20.998 7.003,20.998 C7.003,20.998 1.003,20.998 1.003,20.998 C0.451,20.998 0.003,20.551 0.003,19.999 C0.003,19.446 0.451,18.998 1.003,18.998 C1.003,18.998 7.003,18.998 7.003,18.998 C7.555,18.998 8.003,19.446 8.003,19.999 ZM16.634,41.830 C16.910,41.352 17.522,41.188 18.000,41.464 C18.478,41.740 18.642,42.352 18.366,42.830 C18.366,42.830 17.366,44.562 17.366,44.562 C17.090,45.040 16.478,45.204 16.000,44.928 C15.522,44.652 15.358,44.040 15.634,43.562 C15.634,43.562 16.634,41.830 16.634,41.830 ZM19.634,36.634 C19.910,36.156 20.522,35.992 21.000,36.268 C21.478,36.544 21.642,37.156 21.366,37.634 C21.366,37.634 20.366,39.366 20.366,39.366 C20.090,39.844 19.478,40.008 19.000,39.732 C18.522,39.456 18.358,38.844 18.634,38.366 C18.634,38.366 19.634,36.634 19.634,36.634 ZM20.888,44.830 C21.164,44.352 21.776,44.188 22.254,44.464 C22.733,44.740 22.896,45.352 22.620,45.830 C22.620,45.830 21.620,47.562 21.620,47.562 C21.344,48.040 20.733,48.204 20.254,47.928 C19.776,47.652 19.612,47.040 19.888,46.562 C19.888,46.562 20.888,44.830 20.888,44.830 ZM22.000,34.536 C21.522,34.260 21.358,33.648 21.634,33.170 C21.634,33.170 22.634,31.438 22.634,31.438 C22.910,30.959 23.522,30.796 24.000,31.072 C24.478,31.348 24.642,31.959 24.366,32.438 C24.366,32.438 23.366,34.170 23.366,34.170 C23.090,34.648 22.478,34.812 22.000,34.536 ZM23.888,39.634 C24.164,39.156 24.776,38.992 25.254,39.268 C25.733,39.544 25.896,40.155 25.620,40.634 C25.620,40.634 24.620,42.366 24.620,42.366 C24.344,42.844 23.733,43.008 23.254,42.732 C22.776,42.456 22.612,41.844 22.888,41.366 C22.888,41.366 23.888,39.634 23.888,39.634 ZM26.888,34.438 C27.164,33.959 27.776,33.795 28.254,34.072 C28.733,34.348 28.896,34.959 28.620,35.438 C28.620,35.438 27.620,37.170 27.620,37.170 C27.344,37.648 26.733,37.812 26.254,37.536 C25.776,37.260 25.612,36.648 25.888,36.170 C25.888,36.170 26.888,34.438 26.888,34.438 ZM28.634,41.830 C28.910,41.352 29.522,41.188 30.000,41.464 C30.478,41.740 30.642,42.352 30.366,42.830 C30.366,42.830 29.366,44.562 29.366,44.562 C29.090,45.040 28.478,45.204 28.000,44.928 C27.522,44.652 27.358,44.040 27.634,43.562 C27.634,43.562 28.634,41.830 28.634,41.830 ZM31.634,36.634 C31.910,36.156 32.522,35.992 33.000,36.268 C33.478,36.544 33.642,37.156 33.366,37.634 C33.366,37.634 32.366,39.366 32.366,39.366 C32.090,39.844 31.478,40.008 31.000,39.732 C30.522,39.456 30.358,38.844 30.634,38.366 C30.634,38.366 31.634,36.634 31.634,36.634 ZM34.634,31.438 C34.910,30.959 35.522,30.796 36.000,31.072 C36.478,31.348 36.642,31.959 36.366,32.438 C36.366,32.438 35.366,34.170 35.366,34.170 C35.090,34.648 34.478,34.812 34.000,34.536 C33.522,34.260 33.358,33.648 33.634,33.170 C33.634,33.170 34.634,31.438 34.634,31.438 Z" id="path-1" class="cls-2" fill-rule="evenodd"/>
</svg>
