<svg xmlns="http://www.w3.org/2000/svg" xmlns:xlink="http://www.w3.org/1999/xlink" preserveAspectRatio="xMidYMid" width="49" height="39" viewBox="0 0 49 39">
  <defs>
    <style>

      .cls-2 {
        fill: #796886;
      }
    </style>
  </defs>
  <path d="M35.040,28.987 C35.033,28.987 34.290,28.988 33.055,28.989 C33.036,28.990 33.019,29.000 33.000,29.000 C32.448,29.000 32.000,28.552 32.000,28.000 C32.000,27.448 32.448,27.000 33.000,27.000 C33.000,27.000 33.000,27.000 33.000,27.000 C33.000,27.000 33.000,26.989 33.000,26.989 C34.255,26.989 35.002,26.988 35.002,26.988 C41.714,26.739 47.000,21.253 47.000,14.500 C47.000,7.608 41.391,2.000 34.498,2.000 C28.976,2.000 24.042,5.705 22.500,11.009 C22.420,11.284 22.226,11.512 21.967,11.634 C21.708,11.757 21.409,11.763 21.145,11.648 C20.144,11.218 19.082,11.000 17.988,11.000 C14.457,11.000 11.300,13.369 10.312,16.760 C10.232,17.035 10.038,17.262 9.780,17.385 C9.521,17.507 9.223,17.514 8.959,17.401 C8.339,17.135 7.680,17.001 7.001,17.001 C4.244,17.001 2.000,19.244 2.000,22.000 C2.000,24.757 4.244,27.000 7.001,27.000 C7.622,27.000 8.294,27.000 9.000,27.000 C9.000,27.000 9.000,27.000 9.000,27.000 C9.552,27.000 10.000,27.448 10.000,28.000 C10.000,28.552 9.552,29.000 9.000,29.000 C9.000,29.000 8.999,29.000 8.999,29.000 C8.294,29.000 7.622,29.000 7.001,29.000 C3.140,29.000 0.000,25.859 0.000,22.000 C0.000,18.141 3.140,15.001 7.001,15.001 C7.591,15.001 8.172,15.074 8.735,15.218 C10.255,11.511 13.923,9.000 17.988,9.000 C18.990,9.000 19.971,9.146 20.916,9.437 C23.010,3.830 28.449,-0.000 34.498,-0.000 C42.494,-0.000 49.000,6.504 49.000,14.500 C49.000,22.334 42.867,28.697 35.040,28.987 ZM11.634,31.830 C11.910,31.352 12.522,31.188 13.000,31.464 C13.478,31.740 13.642,32.352 13.366,32.830 C13.366,32.830 12.366,34.562 12.366,34.562 C12.090,35.040 11.478,35.204 11.000,34.928 C10.522,34.652 10.358,34.040 10.634,33.562 C10.634,33.562 11.634,31.830 11.634,31.830 ZM14.634,26.634 C14.910,26.156 15.522,25.992 16.000,26.268 C16.478,26.544 16.642,27.155 16.366,27.634 C16.366,27.634 15.366,29.366 15.366,29.366 C15.090,29.844 14.478,30.008 14.000,29.732 C13.522,29.456 13.358,28.844 13.634,28.366 C13.634,28.366 14.634,26.634 14.634,26.634 ZM15.888,34.830 C16.164,34.352 16.776,34.188 17.254,34.464 C17.733,34.740 17.896,35.352 17.620,35.830 C17.620,35.830 16.620,37.562 16.620,37.562 C16.344,38.040 15.733,38.204 15.254,37.928 C14.776,37.652 14.612,37.040 14.888,36.562 C14.888,36.562 15.888,34.830 15.888,34.830 ZM17.000,24.536 C16.522,24.260 16.358,23.648 16.634,23.170 C16.634,23.170 17.634,21.438 17.634,21.438 C17.910,20.959 18.522,20.796 19.000,21.072 C19.478,21.348 19.642,21.959 19.366,22.438 C19.366,22.438 18.366,24.170 18.366,24.170 C18.090,24.648 17.478,24.812 17.000,24.536 ZM18.888,29.634 C19.164,29.155 19.776,28.992 20.254,29.268 C20.733,29.544 20.896,30.156 20.620,30.634 C20.620,30.634 19.620,32.366 19.620,32.366 C19.344,32.844 18.733,33.008 18.254,32.732 C17.776,32.456 17.612,31.844 17.888,31.366 C17.888,31.366 18.888,29.634 18.888,29.634 ZM21.888,24.438 C22.164,23.959 22.776,23.795 23.254,24.072 C23.733,24.348 23.896,24.959 23.620,25.438 C23.620,25.438 22.620,27.170 22.620,27.170 C22.344,27.648 21.733,27.812 21.254,27.536 C20.776,27.260 20.612,26.648 20.888,26.170 C20.888,26.170 21.888,24.438 21.888,24.438 ZM23.634,31.830 C23.910,31.352 24.522,31.188 25.000,31.464 C25.478,31.740 25.642,32.352 25.366,32.830 C25.366,32.830 24.366,34.562 24.366,34.562 C24.090,35.040 23.478,35.204 23.000,34.928 C22.522,34.652 22.358,34.040 22.634,33.562 C22.634,33.562 23.634,31.830 23.634,31.830 ZM26.634,26.634 C26.910,26.156 27.522,25.992 28.000,26.268 C28.478,26.544 28.642,27.155 28.366,27.634 C28.366,27.634 27.366,29.366 27.366,29.366 C27.090,29.844 26.478,30.008 26.000,29.732 C25.522,29.456 25.358,28.844 25.634,28.366 C25.634,28.366 26.634,26.634 26.634,26.634 ZM29.634,21.438 C29.910,20.959 30.522,20.796 31.000,21.072 C31.478,21.348 31.642,21.959 31.366,22.438 C31.366,22.438 30.366,24.170 30.366,24.170 C30.090,24.648 29.478,24.812 29.000,24.536 C28.522,24.260 28.358,23.648 28.634,23.170 C28.634,23.170 29.634,21.438 29.634,21.438 Z" id="path-1" class="cls-2" fill-rule="evenodd"/>
</svg>
