<svg xmlns="http://www.w3.org/2000/svg" xmlns:xlink="http://www.w3.org/1999/xlink" preserveAspectRatio="xMidYMid" width="49" height="39" viewBox="0 0 49 39">
  <defs>
    <style>

      .cls-2 {
        fill: #796886;
      }
    </style>
  </defs>
  <path d="M35.040,28.987 C35.033,28.987 34.290,28.988 33.054,28.989 C33.035,28.990 33.019,29.000 33.000,29.000 C32.448,29.000 32.000,28.552 32.000,28.000 C32.000,27.448 32.448,27.000 33.000,27.000 C33.000,27.000 33.000,27.000 33.000,27.000 C33.000,27.000 33.000,26.989 33.000,26.989 C34.255,26.989 35.002,26.988 35.002,26.988 C41.714,26.739 47.000,21.253 47.000,14.500 C47.000,7.608 41.391,2.000 34.498,2.000 C28.976,2.000 24.042,5.705 22.500,11.009 C22.420,11.284 22.226,11.512 21.967,11.634 C21.708,11.757 21.409,11.763 21.145,11.648 C20.144,11.218 19.082,11.000 17.988,11.000 C14.457,11.000 11.300,13.369 10.312,16.760 C10.232,17.035 10.038,17.262 9.780,17.385 C9.521,17.507 9.223,17.514 8.959,17.401 C8.339,17.135 7.680,17.001 7.001,17.001 C4.244,17.001 2.000,19.244 2.000,22.000 C2.000,24.757 4.244,27.000 7.001,27.000 C7.622,27.000 8.294,27.000 9.000,27.000 C9.000,27.000 9.000,27.000 9.000,27.000 C9.552,27.000 10.000,27.448 10.000,28.000 C10.000,28.552 9.552,29.000 9.000,29.000 C9.000,29.000 9.000,29.000 9.000,29.000 C8.294,29.000 7.622,29.000 7.001,29.000 C3.140,29.000 0.000,25.859 0.000,22.000 C0.000,18.141 3.140,15.001 7.001,15.001 C7.591,15.001 8.172,15.074 8.735,15.218 C10.255,11.511 13.923,9.000 17.988,9.000 C18.990,9.000 19.971,9.147 20.916,9.437 C23.010,3.830 28.449,-0.000 34.498,-0.000 C42.494,-0.000 49.000,6.505 49.000,14.500 C49.000,22.334 42.867,28.697 35.040,28.987 ZM17.634,21.438 C17.910,20.959 18.522,20.796 19.000,21.072 C19.478,21.348 19.642,21.959 19.366,22.438 C19.366,22.438 12.366,34.562 12.366,34.562 C12.090,35.040 11.478,35.204 11.000,34.928 C10.522,34.652 10.358,34.040 10.634,33.562 C10.634,33.562 17.634,21.438 17.634,21.438 ZM21.890,24.438 C22.166,23.959 22.778,23.795 23.256,24.072 C23.735,24.348 23.899,24.959 23.622,25.438 C23.622,25.438 16.622,37.562 16.622,37.562 C16.346,38.040 15.735,38.204 15.256,37.928 C14.778,37.652 14.614,37.040 14.890,36.562 C14.890,36.562 21.890,24.438 21.890,24.438 ZM29.634,21.438 C29.910,20.959 30.522,20.796 31.000,21.072 C31.478,21.348 31.642,21.959 31.366,22.438 C31.366,22.438 24.366,34.562 24.366,34.562 C24.090,35.040 23.478,35.204 23.000,34.928 C22.522,34.652 22.358,34.040 22.634,33.562 C22.634,33.562 29.634,21.438 29.634,21.438 Z" id="path-1" class="cls-2" fill-rule="evenodd"/>
</svg>
