<svg xmlns="http://www.w3.org/2000/svg" xmlns:xlink="http://www.w3.org/1999/xlink" preserveAspectRatio="xMidYMid" width="54" height="49" viewBox="0 0 54 49">
  <defs>
    <style>

      .cls-2 {
        fill: #796886;
      }
    </style>
  </defs>
  <path d="M40.040,38.987 C40.033,38.987 39.290,38.988 38.054,38.989 C38.035,38.990 38.019,39.000 38.000,39.000 C37.448,39.000 37.000,38.552 37.000,38.000 C37.000,37.448 37.448,37.000 38.000,37.000 C38.000,37.000 38.000,37.000 38.000,37.000 C38.000,37.000 38.000,36.989 38.000,36.989 C39.255,36.989 40.001,36.988 40.001,36.988 C46.714,36.739 52.000,31.253 52.000,24.500 C52.000,17.608 46.391,12.000 39.498,12.000 C33.976,12.000 29.042,15.705 27.500,21.009 C27.420,21.284 27.226,21.512 26.967,21.634 C26.708,21.757 26.409,21.763 26.145,21.648 C25.144,21.218 24.082,21.000 22.988,21.000 C19.457,21.000 16.300,23.369 15.312,26.760 C15.232,27.035 15.038,27.262 14.780,27.385 C14.521,27.507 14.223,27.514 13.959,27.401 C13.339,27.135 12.680,27.001 12.001,27.001 C9.243,27.001 7.000,29.244 7.000,32.000 C7.000,34.757 9.243,37.000 12.001,37.000 C12.622,37.000 13.294,37.000 14.000,37.000 C14.000,37.000 14.000,37.000 14.000,37.000 C14.552,37.000 15.000,37.448 15.000,38.000 C15.000,38.552 14.552,39.000 14.000,39.000 C14.000,39.000 14.000,39.000 14.000,39.000 C13.294,39.000 12.622,39.000 12.001,39.000 C8.140,39.000 5.000,35.859 5.000,32.000 C5.000,28.341 7.833,25.363 11.416,25.060 C10.533,23.572 10.000,21.854 10.000,19.998 C10.000,14.475 14.478,9.998 20.000,9.998 C23.680,9.998 26.874,11.999 28.610,14.960 C31.309,11.893 35.250,10.000 39.498,10.000 C47.494,10.000 54.000,16.505 54.000,24.500 C54.000,32.334 47.867,38.697 40.040,38.987 ZM20.000,11.998 C15.582,11.998 12.000,15.580 12.000,19.998 C12.000,21.916 12.704,23.651 13.830,25.029 C15.397,21.429 18.995,19.000 22.988,19.000 C23.990,19.000 24.971,19.147 25.916,19.437 C26.275,18.475 26.739,17.570 27.282,16.723 C26.030,13.941 23.249,11.998 20.000,11.998 ZM29.899,11.515 C29.509,11.905 28.876,11.905 28.485,11.515 C28.095,11.124 28.095,10.491 28.485,10.100 C28.485,10.100 32.728,5.858 32.728,5.858 C33.118,5.467 33.751,5.467 34.142,5.858 C34.532,6.248 34.532,6.881 34.142,7.272 C34.142,7.272 29.899,11.515 29.899,11.515 ZM20.000,8.000 C19.448,8.000 19.000,7.552 19.000,7.000 C19.000,7.000 19.000,1.000 19.000,1.000 C19.000,0.447 19.448,-0.000 20.000,-0.000 C20.552,-0.000 21.000,0.447 21.000,1.000 C21.000,1.000 21.000,7.000 21.000,7.000 C21.000,7.552 20.552,8.000 20.000,8.000 ZM10.105,11.511 C10.105,11.511 5.863,7.269 5.863,7.269 C5.472,6.878 5.472,6.245 5.863,5.855 C6.253,5.464 6.886,5.464 7.277,5.855 C7.277,5.855 11.520,10.097 11.520,10.097 C11.910,10.488 11.910,11.121 11.520,11.511 C11.129,11.902 10.496,11.902 10.105,11.511 ZM8.003,19.999 C8.003,20.551 7.555,20.998 7.003,20.998 C7.003,20.998 1.003,20.998 1.003,20.998 C0.451,20.998 0.003,20.551 0.003,19.999 C0.003,19.446 0.451,18.998 1.003,18.998 C1.003,18.998 7.003,18.998 7.003,18.998 C7.555,18.998 8.003,19.446 8.003,19.999 ZM22.634,31.438 C22.910,30.959 23.522,30.796 24.000,31.072 C24.478,31.348 24.642,31.959 24.366,32.438 C24.366,32.438 17.366,44.562 17.366,44.562 C17.090,45.040 16.478,45.204 16.000,44.928 C15.522,44.652 15.358,44.040 15.634,43.562 C15.634,43.562 22.634,31.438 22.634,31.438 ZM26.890,34.438 C27.166,33.959 27.778,33.795 28.256,34.072 C28.735,34.348 28.898,34.959 28.622,35.438 C28.622,35.438 21.622,47.562 21.622,47.562 C21.346,48.040 20.735,48.204 20.256,47.928 C19.778,47.652 19.614,47.040 19.890,46.562 C19.890,46.562 26.890,34.438 26.890,34.438 ZM34.634,31.438 C34.910,30.959 35.522,30.796 36.000,31.072 C36.478,31.348 36.642,31.959 36.366,32.438 C36.366,32.438 29.366,44.562 29.366,44.562 C29.090,45.040 28.478,45.204 28.000,44.928 C27.522,44.652 27.358,44.040 27.634,43.562 C27.634,43.562 34.634,31.438 34.634,31.438 Z" id="path-1" class="cls-2" fill-rule="evenodd"/>
</svg>
