<svg xmlns="http://www.w3.org/2000/svg" xmlns:xlink="http://www.w3.org/1999/xlink" preserveAspectRatio="xMidYMid" width="49" height="47" viewBox="0 0 49 47">
  <defs>
    <style>

      .cls-2 {
        fill: #796886;
      }
    </style>
  </defs>
  <path d="M35.040,35.956 C35.035,35.956 34.674,35.956 34.058,35.957 C34.038,35.958 34.020,35.969 34.000,35.969 C33.448,35.969 33.000,35.521 33.000,34.969 C33.000,34.416 33.448,33.969 34.000,33.969 C34.000,33.969 34.000,33.969 34.000,33.969 C34.000,33.969 34.000,33.958 34.000,33.958 C34.636,33.957 35.002,33.957 35.002,33.957 C41.714,33.708 47.000,28.222 47.000,21.469 C47.000,14.576 41.391,8.968 34.498,8.968 C28.976,8.968 24.042,12.674 22.500,17.978 C22.420,18.253 22.226,18.481 21.967,18.603 C21.708,18.726 21.409,18.732 21.145,18.617 C20.144,18.187 19.082,17.969 17.988,17.969 C14.457,17.969 11.300,20.337 10.312,23.729 C10.232,24.004 10.038,24.231 9.780,24.354 C9.521,24.476 9.223,24.483 8.959,24.369 C8.339,24.104 7.680,23.970 7.001,23.970 C4.244,23.970 2.000,26.212 2.000,28.969 C2.000,31.726 4.244,33.969 7.001,33.969 C7.622,33.969 8.294,33.969 9.000,33.969 C9.000,33.969 9.000,33.969 9.000,33.969 C9.552,33.969 10.000,34.416 10.000,34.969 C10.000,35.521 9.552,35.969 9.000,35.969 C9.000,35.969 9.000,35.969 9.000,35.969 C8.294,35.969 7.622,35.969 7.001,35.969 C3.140,35.969 0.000,32.828 0.000,28.969 C0.000,26.612 1.180,24.533 2.971,23.264 C1.943,22.491 1.017,21.575 0.249,20.508 C0.024,20.193 0.000,19.778 0.189,19.440 C0.378,19.102 0.737,18.908 1.135,18.928 C1.135,18.928 1.298,18.940 1.298,18.940 C1.477,18.951 1.655,18.965 1.836,18.965 C7.943,18.965 12.911,14.028 12.911,7.960 C12.911,5.664 12.197,3.457 10.846,1.577 C10.620,1.263 10.596,0.847 10.785,0.510 C10.973,0.172 11.344,-0.031 11.729,-0.003 C18.144,0.399 23.235,5.393 23.889,11.617 C26.577,8.734 30.396,6.969 34.498,6.969 C42.494,6.969 49.000,13.473 49.000,21.469 C49.000,29.303 42.868,35.666 35.040,35.956 ZM21.973,12.962 C21.973,7.864 18.437,3.518 13.618,2.307 C14.478,4.063 14.925,5.983 14.925,7.960 C14.925,14.662 9.797,20.197 3.235,20.893 C3.795,21.427 4.423,21.871 5.078,22.272 C5.693,22.095 6.329,21.970 7.001,21.970 C7.591,21.970 8.172,22.043 8.735,22.187 C10.255,18.480 13.923,15.969 17.988,15.969 C18.990,15.969 19.971,16.115 20.916,16.405 C21.182,15.694 21.502,15.012 21.870,14.362 C21.930,13.903 21.973,13.438 21.973,12.962 ZM9.511,40.951 C9.511,40.951 10.645,40.951 10.645,40.951 C10.645,40.951 10.078,39.969 10.078,39.969 C9.940,39.730 10.022,39.424 10.261,39.286 C10.500,39.148 10.806,39.230 10.944,39.469 C10.944,39.469 11.511,40.451 11.511,40.451 C11.511,40.451 12.078,39.469 12.078,39.469 C12.216,39.230 12.521,39.148 12.761,39.286 C13.000,39.424 13.082,39.730 12.944,39.969 C12.944,39.969 12.377,40.951 12.377,40.951 C12.377,40.951 13.511,40.951 13.511,40.951 C13.787,40.951 14.011,41.175 14.011,41.451 C14.011,41.727 13.787,41.951 13.511,41.951 C13.511,41.951 12.377,41.951 12.377,41.951 C12.377,41.951 12.944,42.934 12.944,42.934 C13.082,43.173 13.000,43.478 12.761,43.616 C12.521,43.754 12.216,43.673 12.078,43.434 C12.078,43.434 11.519,42.466 11.519,42.466 C11.512,42.466 11.506,42.470 11.500,42.470 C11.500,42.470 10.944,43.434 10.944,43.434 C10.806,43.673 10.500,43.754 10.261,43.616 C10.022,43.478 9.940,43.173 10.078,42.934 C10.078,42.934 10.634,41.970 10.634,41.970 C10.630,41.965 10.631,41.957 10.628,41.951 C10.628,41.951 9.511,41.951 9.511,41.951 C9.235,41.951 9.011,41.727 9.011,41.451 C9.011,41.175 9.235,40.951 9.511,40.951 ZM14.533,43.951 C14.533,43.951 15.667,43.951 15.667,43.951 C15.667,43.951 15.100,42.969 15.100,42.969 C14.962,42.730 15.044,42.424 15.283,42.286 C15.522,42.148 15.828,42.230 15.966,42.469 C15.966,42.469 16.533,43.451 16.533,43.451 C16.533,43.451 17.100,42.469 17.100,42.469 C17.238,42.230 17.544,42.148 17.783,42.286 C18.022,42.424 18.104,42.730 17.966,42.969 C17.966,42.969 17.399,43.951 17.399,43.951 C17.399,43.951 18.533,43.951 18.533,43.951 C18.809,43.951 19.033,44.175 19.033,44.451 C19.033,44.727 18.809,44.951 18.533,44.951 C18.533,44.951 17.399,44.951 17.399,44.951 C17.399,44.951 17.966,45.934 17.966,45.934 C18.104,46.172 18.022,46.478 17.783,46.616 C17.544,46.754 17.238,46.672 17.100,46.434 C17.100,46.434 16.541,45.466 16.541,45.466 C16.535,45.466 16.529,45.470 16.522,45.470 C16.522,45.470 15.966,46.434 15.966,46.434 C15.828,46.672 15.522,46.754 15.283,46.616 C15.044,46.478 14.962,46.172 15.100,45.934 C15.100,45.934 15.656,44.970 15.656,44.970 C15.653,44.965 15.654,44.957 15.651,44.951 C15.651,44.951 14.533,44.951 14.533,44.951 C14.257,44.951 14.033,44.727 14.033,44.451 C14.033,44.175 14.257,43.951 14.533,43.951 ZM18.246,40.627 C18.007,40.489 17.925,40.183 18.063,39.944 C18.063,39.944 18.619,38.981 18.619,38.981 C18.616,38.975 18.617,38.968 18.614,38.962 C18.614,38.962 17.496,38.962 17.496,38.962 C17.220,38.962 16.996,38.738 16.996,38.462 C16.996,38.186 17.220,37.962 17.496,37.962 C17.496,37.962 18.630,37.962 18.630,37.962 C18.630,37.962 18.063,36.980 18.063,36.980 C17.925,36.741 18.007,36.435 18.246,36.297 C18.485,36.159 18.791,36.241 18.929,36.480 C18.929,36.480 19.496,37.462 19.496,37.462 C19.496,37.462 20.063,36.480 20.063,36.480 C20.201,36.241 20.507,36.159 20.746,36.297 C20.985,36.435 21.067,36.741 20.929,36.980 C20.929,36.980 20.362,37.962 20.362,37.962 C20.362,37.962 21.496,37.962 21.496,37.962 C21.772,37.962 21.996,38.186 21.996,38.462 C21.996,38.738 21.772,38.962 21.496,38.962 C21.496,38.962 20.362,38.962 20.362,38.962 C20.362,38.962 20.929,39.944 20.929,39.944 C21.067,40.183 20.985,40.489 20.746,40.627 C20.507,40.765 20.201,40.683 20.063,40.444 C20.063,40.444 19.504,39.476 19.504,39.476 C19.497,39.476 19.492,39.481 19.485,39.481 C19.485,39.481 18.929,40.444 18.929,40.444 C18.791,40.683 18.485,40.765 18.246,40.627 ZM22.483,40.951 C22.483,40.951 23.617,40.951 23.617,40.951 C23.617,40.951 23.050,39.969 23.050,39.969 C22.912,39.730 22.994,39.424 23.233,39.286 C23.473,39.148 23.778,39.230 23.916,39.469 C23.916,39.469 24.483,40.451 24.483,40.451 C24.483,40.451 25.050,39.469 25.050,39.469 C25.188,39.230 25.494,39.148 25.733,39.286 C25.973,39.424 26.055,39.730 25.916,39.969 C25.916,39.969 25.349,40.951 25.349,40.951 C25.349,40.951 26.483,40.951 26.483,40.951 C26.760,40.951 26.983,41.175 26.983,41.451 C26.983,41.727 26.760,41.951 26.483,41.951 C26.483,41.951 25.349,41.951 25.349,41.951 C25.349,41.951 25.916,42.934 25.916,42.934 C26.055,43.173 25.973,43.478 25.733,43.616 C25.494,43.754 25.188,43.673 25.050,43.434 C25.050,43.434 24.492,42.466 24.492,42.466 C24.485,42.466 24.479,42.470 24.472,42.470 C24.472,42.470 23.916,43.434 23.916,43.434 C23.778,43.673 23.473,43.754 23.233,43.616 C22.994,43.478 22.912,43.173 23.050,42.934 C23.050,42.934 23.606,41.970 23.606,41.970 C23.603,41.965 23.604,41.957 23.601,41.951 C23.601,41.951 22.483,41.951 22.483,41.951 C22.207,41.951 21.983,41.727 21.983,41.451 C21.983,41.175 22.207,40.951 22.483,40.951 ZM17.005,35.462 C17.005,35.738 16.781,35.962 16.505,35.962 C16.505,35.962 15.371,35.962 15.371,35.962 C15.371,35.962 15.938,36.944 15.938,36.944 C16.076,37.183 15.994,37.489 15.755,37.627 C15.516,37.765 15.210,37.683 15.072,37.444 C15.072,37.444 14.513,36.476 14.513,36.476 C14.506,36.476 14.501,36.481 14.494,36.481 C14.494,36.481 13.938,37.444 13.938,37.444 C13.800,37.683 13.494,37.765 13.255,37.627 C13.016,37.489 12.934,37.183 13.072,36.944 C13.072,36.944 13.628,35.981 13.628,35.981 C13.624,35.975 13.626,35.968 13.622,35.962 C13.622,35.962 12.505,35.962 12.505,35.962 C12.229,35.962 12.005,35.738 12.005,35.462 C12.005,35.186 12.229,34.962 12.505,34.962 C12.505,34.962 13.639,34.962 13.639,34.962 C13.639,34.962 13.072,33.980 13.072,33.980 C12.934,33.741 13.016,33.435 13.255,33.297 C13.494,33.159 13.800,33.241 13.938,33.480 C13.938,33.480 14.505,34.462 14.505,34.462 C14.505,34.462 15.072,33.480 15.072,33.480 C15.210,33.241 15.516,33.159 15.755,33.297 C15.994,33.435 16.076,33.741 15.938,33.980 C15.938,33.980 15.371,34.962 15.371,34.962 C15.371,34.962 16.505,34.962 16.505,34.962 C16.781,34.962 17.005,35.186 17.005,35.462 ZM21.018,29.439 C21.018,29.715 20.795,29.939 20.518,29.939 C20.518,29.939 19.384,29.939 19.384,29.939 C19.384,29.939 19.951,30.921 19.951,30.921 C20.089,31.160 20.007,31.466 19.768,31.604 C19.529,31.742 19.223,31.660 19.085,31.421 C19.085,31.421 18.527,30.453 18.527,30.453 C18.520,30.453 18.514,30.458 18.507,30.458 C18.507,30.458 17.951,31.421 17.951,31.421 C17.813,31.660 17.508,31.742 17.268,31.604 C17.029,31.466 16.947,31.160 17.085,30.921 C17.085,30.921 17.641,29.958 17.641,29.958 C17.638,29.952 17.639,29.945 17.636,29.939 C17.636,29.939 16.518,29.939 16.518,29.939 C16.242,29.939 16.018,29.715 16.018,29.439 C16.018,29.163 16.242,28.939 16.518,28.939 C16.518,28.939 17.652,28.939 17.652,28.939 C17.652,28.939 17.085,27.957 17.085,27.957 C16.947,27.718 17.029,27.412 17.268,27.274 C17.508,27.136 17.813,27.218 17.951,27.457 C17.951,27.457 18.518,28.439 18.518,28.439 C18.518,28.439 19.085,27.457 19.085,27.457 C19.223,27.218 19.529,27.136 19.768,27.274 C20.007,27.412 20.089,27.718 19.951,27.957 C19.951,27.957 19.384,28.939 19.384,28.939 C19.384,28.939 20.518,28.939 20.518,28.939 C20.795,28.939 21.018,29.163 21.018,29.439 ZM26.010,32.439 C26.010,32.715 25.786,32.939 25.510,32.939 C25.510,32.939 24.376,32.939 24.376,32.939 C24.376,32.939 24.943,33.921 24.943,33.921 C25.081,34.160 24.999,34.466 24.760,34.604 C24.520,34.742 24.215,34.660 24.076,34.421 C24.076,34.421 23.518,33.453 23.518,33.453 C23.511,33.453 23.505,33.458 23.499,33.458 C23.499,33.458 22.942,34.421 22.942,34.421 C22.804,34.660 22.499,34.742 22.259,34.604 C22.020,34.466 21.938,34.160 22.076,33.921 C22.076,33.921 22.632,32.958 22.632,32.958 C22.629,32.952 22.630,32.945 22.627,32.939 C22.627,32.939 21.510,32.939 21.510,32.939 C21.233,32.939 21.010,32.715 21.010,32.439 C21.010,32.163 21.233,31.939 21.510,31.939 C21.510,31.939 22.643,31.939 22.643,31.939 C22.643,31.939 22.076,30.957 22.076,30.957 C21.938,30.718 22.020,30.412 22.259,30.274 C22.499,30.136 22.804,30.217 22.942,30.457 C22.942,30.457 23.509,31.439 23.509,31.439 C23.509,31.439 24.076,30.457 24.076,30.457 C24.215,30.217 24.520,30.136 24.760,30.274 C24.999,30.412 25.081,30.718 24.943,30.957 C24.943,30.957 24.376,31.939 24.376,31.939 C24.376,31.939 25.510,31.939 25.510,31.939 C25.786,31.939 26.010,32.163 26.010,32.439 ZM27.632,35.981 C27.628,35.975 27.630,35.968 27.626,35.962 C27.626,35.962 26.509,35.962 26.509,35.962 C26.233,35.962 26.009,35.738 26.009,35.462 C26.009,35.186 26.233,34.962 26.509,34.962 C26.509,34.962 27.643,34.962 27.643,34.962 C27.643,34.962 27.076,33.980 27.076,33.980 C26.938,33.741 27.020,33.435 27.259,33.297 C27.498,33.159 27.804,33.241 27.942,33.480 C27.942,33.480 28.509,34.462 28.509,34.462 C28.509,34.462 29.076,33.480 29.076,33.480 C29.214,33.241 29.520,33.159 29.759,33.297 C29.998,33.435 30.080,33.741 29.942,33.980 C29.942,33.980 29.375,34.962 29.375,34.962 C29.375,34.962 30.509,34.962 30.509,34.962 C30.785,34.962 31.009,35.186 31.009,35.462 C31.009,35.738 30.785,35.962 30.509,35.962 C30.509,35.962 29.375,35.962 29.375,35.962 C29.375,35.962 29.942,36.944 29.942,36.944 C30.080,37.183 29.998,37.489 29.759,37.627 C29.520,37.765 29.214,37.683 29.076,37.444 C29.076,37.444 28.517,36.476 28.517,36.476 C28.510,36.476 28.504,36.481 28.498,36.481 C28.498,36.481 27.942,37.444 27.942,37.444 C27.804,37.683 27.498,37.765 27.259,37.627 C27.020,37.489 26.938,37.183 27.076,36.944 C27.076,36.944 27.632,35.981 27.632,35.981 ZM30.241,31.604 C30.002,31.466 29.920,31.160 30.058,30.921 C30.058,30.921 30.614,29.958 30.614,29.958 C30.611,29.952 30.612,29.945 30.609,29.939 C30.609,29.939 29.491,29.939 29.491,29.939 C29.215,29.939 28.991,29.715 28.991,29.439 C28.991,29.163 29.215,28.939 29.491,28.939 C29.491,28.939 30.625,28.939 30.625,28.939 C30.625,28.939 30.058,27.957 30.058,27.957 C29.920,27.718 30.002,27.412 30.241,27.274 C30.480,27.136 30.786,27.218 30.924,27.457 C30.924,27.457 31.491,28.439 31.491,28.439 C31.491,28.439 32.058,27.457 32.058,27.457 C32.196,27.218 32.502,27.136 32.741,27.274 C32.980,27.412 33.062,27.718 32.924,27.957 C32.924,27.957 32.357,28.939 32.357,28.939 C32.357,28.939 33.491,28.939 33.491,28.939 C33.767,28.939 33.991,29.163 33.991,29.439 C33.991,29.715 33.767,29.939 33.491,29.939 C33.491,29.939 32.357,29.939 32.357,29.939 C32.357,29.939 32.924,30.921 32.924,30.921 C33.062,31.160 32.980,31.466 32.741,31.604 C32.502,31.742 32.196,31.660 32.058,31.421 C32.058,31.421 31.499,30.453 31.499,30.453 C31.493,30.453 31.487,30.458 31.480,30.458 C31.480,30.458 30.924,31.421 30.924,31.421 C30.786,31.660 30.480,31.742 30.241,31.604 Z" id="path-1" class="cls-2" fill-rule="evenodd"/>
</svg>
