<svg xmlns="http://www.w3.org/2000/svg" xmlns:xlink="http://www.w3.org/1999/xlink" preserveAspectRatio="xMidYMid" width="49" height="40" viewBox="0 0 49 40">
  <defs>
    <style>

      .cls-2 {
        fill: #796886;
      }
    </style>
  </defs>
  <path d="M35.040,28.987 C35.035,28.987 34.674,28.988 34.058,28.988 C34.038,28.989 34.020,29.000 34.000,29.000 C33.448,29.000 33.000,28.552 33.000,28.000 C33.000,27.447 33.448,27.000 34.000,27.000 C34.000,27.000 34.000,27.000 34.000,27.000 C34.000,27.000 34.000,26.989 34.000,26.989 C34.636,26.989 35.002,26.988 35.002,26.988 C41.714,26.739 47.000,21.253 47.000,14.500 C47.000,7.608 41.391,2.000 34.498,2.000 C28.976,2.000 24.042,5.705 22.500,11.009 C22.420,11.284 22.226,11.512 21.967,11.634 C21.708,11.757 21.409,11.763 21.145,11.648 C20.144,11.218 19.082,11.000 17.988,11.000 C14.457,11.000 11.300,13.369 10.312,16.760 C10.232,17.036 10.038,17.262 9.780,17.385 C9.521,17.507 9.223,17.514 8.959,17.401 C8.339,17.135 7.680,17.001 7.001,17.001 C4.244,17.001 2.000,19.243 2.000,22.000 C2.000,24.757 4.244,27.000 7.001,27.000 C7.622,27.000 8.294,27.000 9.000,27.000 C9.000,27.000 9.000,27.000 9.000,27.000 C9.552,27.000 10.000,27.448 10.000,28.000 C10.000,28.552 9.552,29.000 9.000,29.000 C9.000,29.000 9.000,29.000 9.000,29.000 C8.294,29.000 7.622,29.000 7.001,29.000 C3.140,29.000 0.000,25.859 0.000,22.000 C0.000,18.141 3.140,15.001 7.001,15.001 C7.591,15.001 8.172,15.074 8.735,15.218 C10.255,11.511 13.923,9.000 17.988,9.000 C18.990,9.000 19.971,9.147 20.916,9.437 C23.010,3.830 28.449,-0.000 34.498,-0.000 C42.494,-0.000 49.000,6.505 49.000,14.500 C49.000,22.334 42.867,28.697 35.040,28.987 ZM9.511,33.983 C9.511,33.983 10.645,33.983 10.645,33.983 C10.645,33.983 10.078,33.001 10.078,33.001 C9.940,32.761 10.022,32.456 10.261,32.318 C10.500,32.179 10.806,32.261 10.944,32.501 C10.944,32.501 11.511,33.483 11.511,33.483 C11.511,33.483 12.078,32.501 12.078,32.501 C12.216,32.261 12.521,32.179 12.761,32.318 C13.000,32.456 13.082,32.761 12.944,33.001 C12.944,33.001 12.377,33.983 12.377,33.983 C12.377,33.983 13.511,33.983 13.511,33.983 C13.787,33.983 14.011,34.206 14.011,34.483 C14.011,34.759 13.787,34.983 13.511,34.983 C13.511,34.983 12.377,34.983 12.377,34.983 C12.377,34.983 12.944,35.965 12.944,35.965 C13.082,36.204 13.000,36.510 12.761,36.648 C12.521,36.786 12.216,36.704 12.078,36.465 C12.078,36.465 11.519,35.497 11.519,35.497 C11.512,35.497 11.506,35.502 11.500,35.502 C11.500,35.502 10.944,36.465 10.944,36.465 C10.806,36.704 10.500,36.786 10.261,36.648 C10.022,36.510 9.940,36.204 10.078,35.965 C10.078,35.965 10.634,35.002 10.634,35.002 C10.630,34.996 10.631,34.988 10.628,34.983 C10.628,34.983 9.511,34.983 9.511,34.983 C9.234,34.983 9.011,34.759 9.011,34.483 C9.011,34.206 9.234,33.983 9.511,33.983 ZM14.533,36.983 C14.533,36.983 15.667,36.983 15.667,36.983 C15.667,36.983 15.100,36.001 15.100,36.001 C14.962,35.761 15.044,35.456 15.283,35.317 C15.522,35.180 15.828,35.261 15.966,35.501 C15.966,35.501 16.533,36.483 16.533,36.483 C16.533,36.483 17.100,35.501 17.100,35.501 C17.238,35.261 17.544,35.180 17.783,35.317 C18.022,35.456 18.104,35.761 17.966,36.001 C17.966,36.001 17.399,36.983 17.399,36.983 C17.399,36.983 18.533,36.983 18.533,36.983 C18.809,36.983 19.033,37.206 19.033,37.483 C19.033,37.759 18.809,37.983 18.533,37.983 C18.533,37.983 17.399,37.983 17.399,37.983 C17.399,37.983 17.966,38.965 17.966,38.965 C18.104,39.204 18.022,39.510 17.783,39.648 C17.544,39.786 17.238,39.704 17.100,39.465 C17.100,39.465 16.541,38.497 16.541,38.497 C16.535,38.497 16.529,38.502 16.522,38.502 C16.522,38.502 15.966,39.465 15.966,39.465 C15.828,39.704 15.522,39.786 15.283,39.648 C15.044,39.510 14.962,39.204 15.100,38.965 C15.100,38.965 15.656,38.002 15.656,38.002 C15.653,37.996 15.654,37.988 15.651,37.983 C15.651,37.983 14.533,37.983 14.533,37.983 C14.257,37.983 14.033,37.759 14.033,37.483 C14.033,37.206 14.257,36.983 14.533,36.983 ZM18.246,33.658 C18.007,33.520 17.925,33.214 18.063,32.975 C18.063,32.975 18.619,32.012 18.619,32.012 C18.616,32.006 18.617,31.999 18.614,31.993 C18.614,31.993 17.496,31.993 17.496,31.993 C17.220,31.993 16.996,31.769 16.996,31.493 C16.996,31.217 17.220,30.993 17.496,30.993 C17.496,30.993 18.630,30.993 18.630,30.993 C18.630,30.993 18.063,30.011 18.063,30.011 C17.925,29.772 18.007,29.466 18.246,29.328 C18.485,29.190 18.791,29.272 18.929,29.511 C18.929,29.511 19.496,30.493 19.496,30.493 C19.496,30.493 20.063,29.511 20.063,29.511 C20.201,29.272 20.507,29.190 20.746,29.328 C20.985,29.466 21.067,29.772 20.929,30.011 C20.929,30.011 20.362,30.993 20.362,30.993 C20.362,30.993 21.496,30.993 21.496,30.993 C21.772,30.993 21.996,31.217 21.996,31.493 C21.996,31.769 21.772,31.993 21.496,31.993 C21.496,31.993 20.362,31.993 20.362,31.993 C20.362,31.993 20.929,32.975 20.929,32.975 C21.067,33.214 20.985,33.520 20.746,33.658 C20.507,33.796 20.201,33.714 20.063,33.475 C20.063,33.475 19.504,32.507 19.504,32.507 C19.497,32.507 19.492,32.512 19.485,32.512 C19.485,32.512 18.929,33.475 18.929,33.475 C18.791,33.714 18.485,33.796 18.246,33.658 ZM22.483,33.983 C22.483,33.983 23.617,33.983 23.617,33.983 C23.617,33.983 23.050,33.001 23.050,33.001 C22.912,32.761 22.994,32.456 23.233,32.318 C23.473,32.179 23.778,32.261 23.916,32.501 C23.916,32.501 24.483,33.483 24.483,33.483 C24.483,33.483 25.050,32.501 25.050,32.501 C25.188,32.261 25.494,32.179 25.733,32.318 C25.973,32.456 26.055,32.761 25.916,33.001 C25.916,33.001 25.349,33.983 25.349,33.983 C25.349,33.983 26.483,33.983 26.483,33.983 C26.760,33.983 26.983,34.206 26.983,34.483 C26.983,34.759 26.760,34.983 26.483,34.983 C26.483,34.983 25.349,34.983 25.349,34.983 C25.349,34.983 25.916,35.965 25.916,35.965 C26.055,36.204 25.973,36.510 25.733,36.648 C25.494,36.786 25.188,36.704 25.050,36.465 C25.050,36.465 24.492,35.497 24.492,35.497 C24.485,35.497 24.479,35.502 24.472,35.502 C24.472,35.502 23.916,36.465 23.916,36.465 C23.778,36.704 23.473,36.786 23.233,36.648 C22.994,36.510 22.912,36.204 23.050,35.965 C23.050,35.965 23.606,35.002 23.606,35.002 C23.603,34.996 23.604,34.988 23.601,34.983 C23.601,34.983 22.483,34.983 22.483,34.983 C22.207,34.983 21.983,34.759 21.983,34.483 C21.983,34.206 22.207,33.983 22.483,33.983 ZM17.005,28.493 C17.005,28.769 16.781,28.993 16.505,28.993 C16.505,28.993 15.371,28.993 15.371,28.993 C15.371,28.993 15.938,29.975 15.938,29.975 C16.076,30.214 15.994,30.520 15.755,30.658 C15.516,30.796 15.210,30.714 15.072,30.475 C15.072,30.475 14.513,29.507 14.513,29.507 C14.506,29.507 14.500,29.512 14.494,29.512 C14.494,29.512 13.938,30.475 13.938,30.475 C13.800,30.714 13.494,30.796 13.255,30.658 C13.016,30.520 12.934,30.214 13.072,29.975 C13.072,29.975 13.628,29.012 13.628,29.012 C13.624,29.006 13.626,28.999 13.622,28.993 C13.622,28.993 12.505,28.993 12.505,28.993 C12.229,28.993 12.005,28.769 12.005,28.493 C12.005,28.217 12.229,27.993 12.505,27.993 C12.505,27.993 13.639,27.993 13.639,27.993 C13.639,27.993 13.072,27.011 13.072,27.011 C12.934,26.772 13.016,26.466 13.255,26.328 C13.494,26.190 13.800,26.272 13.938,26.511 C13.938,26.511 14.505,27.493 14.505,27.493 C14.505,27.493 15.072,26.511 15.072,26.511 C15.210,26.272 15.516,26.190 15.755,26.328 C15.994,26.466 16.076,26.772 15.938,27.011 C15.938,27.011 15.371,27.993 15.371,27.993 C15.371,27.993 16.505,27.993 16.505,27.993 C16.781,27.993 17.005,28.217 17.005,28.493 ZM21.018,22.470 C21.018,22.746 20.795,22.970 20.518,22.970 C20.518,22.970 19.384,22.970 19.384,22.970 C19.384,22.970 19.951,23.952 19.951,23.952 C20.089,24.191 20.007,24.497 19.768,24.635 C19.529,24.773 19.223,24.691 19.085,24.452 C19.085,24.452 18.527,23.484 18.527,23.484 C18.520,23.484 18.514,23.489 18.507,23.489 C18.507,23.489 17.951,24.452 17.951,24.452 C17.813,24.691 17.508,24.773 17.268,24.635 C17.029,24.497 16.947,24.191 17.085,23.952 C17.085,23.952 17.641,22.989 17.641,22.989 C17.638,22.983 17.639,22.976 17.636,22.970 C17.636,22.970 16.518,22.970 16.518,22.970 C16.242,22.970 16.018,22.746 16.018,22.470 C16.018,22.194 16.242,21.970 16.518,21.970 C16.518,21.970 17.652,21.970 17.652,21.970 C17.652,21.970 17.085,20.988 17.085,20.988 C16.947,20.749 17.029,20.443 17.268,20.305 C17.508,20.167 17.813,20.249 17.951,20.488 C17.951,20.488 18.518,21.470 18.518,21.470 C18.518,21.470 19.085,20.488 19.085,20.488 C19.223,20.249 19.529,20.167 19.768,20.305 C20.007,20.443 20.089,20.749 19.951,20.988 C19.951,20.988 19.384,21.970 19.384,21.970 C19.384,21.970 20.518,21.970 20.518,21.970 C20.795,21.970 21.018,22.194 21.018,22.470 ZM26.010,25.470 C26.010,25.746 25.786,25.970 25.510,25.970 C25.510,25.970 24.376,25.970 24.376,25.970 C24.376,25.970 24.943,26.952 24.943,26.952 C25.081,27.191 24.999,27.497 24.760,27.635 C24.520,27.773 24.215,27.691 24.076,27.452 C24.076,27.452 23.518,26.484 23.518,26.484 C23.511,26.484 23.505,26.489 23.499,26.489 C23.499,26.489 22.942,27.452 22.942,27.452 C22.804,27.691 22.499,27.773 22.259,27.635 C22.020,27.497 21.938,27.191 22.076,26.952 C22.076,26.952 22.632,25.989 22.632,25.989 C22.629,25.983 22.630,25.976 22.627,25.970 C22.627,25.970 21.510,25.970 21.510,25.970 C21.233,25.970 21.010,25.746 21.010,25.470 C21.010,25.194 21.233,24.970 21.510,24.970 C21.510,24.970 22.643,24.970 22.643,24.970 C22.643,24.970 22.076,23.988 22.076,23.988 C21.938,23.749 22.020,23.443 22.259,23.305 C22.499,23.167 22.804,23.249 22.942,23.488 C22.942,23.488 23.509,24.470 23.509,24.470 C23.509,24.470 24.076,23.488 24.076,23.488 C24.215,23.249 24.520,23.167 24.760,23.305 C24.999,23.443 25.081,23.749 24.943,23.988 C24.943,23.988 24.376,24.970 24.376,24.970 C24.376,24.970 25.510,24.970 25.510,24.970 C25.786,24.970 26.010,25.194 26.010,25.470 ZM27.632,29.012 C27.628,29.006 27.630,28.999 27.626,28.993 C27.626,28.993 26.509,28.993 26.509,28.993 C26.233,28.993 26.009,28.769 26.009,28.493 C26.009,28.217 26.233,27.993 26.509,27.993 C26.509,27.993 27.643,27.993 27.643,27.993 C27.643,27.993 27.076,27.011 27.076,27.011 C26.938,26.772 27.020,26.466 27.259,26.328 C27.498,26.190 27.804,26.272 27.942,26.511 C27.942,26.511 28.509,27.493 28.509,27.493 C28.509,27.493 29.076,26.511 29.076,26.511 C29.214,26.272 29.520,26.190 29.759,26.328 C29.998,26.466 30.080,26.772 29.942,27.011 C29.942,27.011 29.375,27.993 29.375,27.993 C29.375,27.993 30.509,27.993 30.509,27.993 C30.785,27.993 31.009,28.217 31.009,28.493 C31.009,28.769 30.785,28.993 30.509,28.993 C30.509,28.993 29.375,28.993 29.375,28.993 C29.375,28.993 29.942,29.975 29.942,29.975 C30.080,30.214 29.998,30.520 29.759,30.658 C29.520,30.796 29.214,30.714 29.076,30.475 C29.076,30.475 28.517,29.507 28.517,29.507 C28.510,29.507 28.504,29.512 28.498,29.512 C28.498,29.512 27.942,30.475 27.942,30.475 C27.804,30.714 27.498,30.796 27.259,30.658 C27.020,30.520 26.938,30.214 27.076,29.975 C27.076,29.975 27.632,29.012 27.632,29.012 ZM30.241,24.635 C30.002,24.497 29.920,24.191 30.058,23.952 C30.058,23.952 30.614,22.989 30.614,22.989 C30.611,22.983 30.612,22.976 30.609,22.970 C30.609,22.970 29.491,22.970 29.491,22.970 C29.215,22.970 28.991,22.746 28.991,22.470 C28.991,22.194 29.215,21.970 29.491,21.970 C29.491,21.970 30.625,21.970 30.625,21.970 C30.625,21.970 30.058,20.988 30.058,20.988 C29.920,20.749 30.002,20.443 30.241,20.305 C30.480,20.167 30.786,20.249 30.924,20.488 C30.924,20.488 31.491,21.470 31.491,21.470 C31.491,21.470 32.058,20.488 32.058,20.488 C32.196,20.249 32.502,20.167 32.741,20.305 C32.980,20.443 33.062,20.749 32.924,20.988 C32.924,20.988 32.357,21.970 32.357,21.970 C32.357,21.970 33.491,21.970 33.491,21.970 C33.767,21.970 33.991,22.194 33.991,22.470 C33.991,22.746 33.767,22.970 33.491,22.970 C33.491,22.970 32.357,22.970 32.357,22.970 C32.357,22.970 32.924,23.952 32.924,23.952 C33.062,24.191 32.980,24.497 32.741,24.635 C32.502,24.773 32.196,24.691 32.058,24.452 C32.058,24.452 31.499,23.484 31.499,23.484 C31.493,23.484 31.487,23.489 31.480,23.489 C31.480,23.489 30.924,24.452 30.924,24.452 C30.786,24.691 30.480,24.773 30.241,24.635 Z" id="path-1" class="cls-2" fill-rule="evenodd"/>
</svg>
