<svg xmlns="http://www.w3.org/2000/svg" xmlns:xlink="http://www.w3.org/1999/xlink" preserveAspectRatio="xMidYMid" width="39" height="40" viewBox="0 0 39 40">
  <defs>
    <style>

      .cls-2 {
        fill: #796886;
      }
    </style>
  </defs>
  <path d="M38.498,33.780 C38.346,34.254 37.803,34.485 37.376,34.347 C37.376,34.347 36.936,34.193 36.495,34.040 C36.067,33.877 35.638,33.712 35.638,33.712 C35.638,33.712 35.687,34.181 35.735,34.649 C35.758,35.110 35.781,35.571 35.781,35.571 C35.796,36.025 35.400,36.445 34.921,36.490 C34.441,36.535 34.075,36.184 34.075,35.722 C34.075,35.722 34.068,35.253 34.060,34.784 C34.038,34.324 34.017,33.864 34.017,33.864 C34.017,33.864 33.637,34.113 33.256,34.362 C33.070,34.494 32.870,34.600 32.716,34.676 C32.566,34.755 32.465,34.808 32.465,34.808 C32.070,35.014 31.589,34.855 31.392,34.454 C31.194,34.054 31.326,33.578 31.689,33.389 C31.689,33.389 31.782,33.341 31.922,33.268 C32.065,33.198 32.251,33.099 32.423,32.977 C32.775,32.745 33.128,32.514 33.128,32.514 C33.128,32.514 32.740,32.293 32.352,32.073 C31.978,31.845 31.605,31.616 31.605,31.616 C31.247,31.388 31.092,30.898 31.231,30.539 C31.369,30.176 31.762,30.078 32.138,30.298 C32.138,30.298 32.521,30.515 32.903,30.733 C33.287,30.925 33.671,31.117 33.671,31.117 C33.671,31.117 33.688,31.095 33.688,31.095 C33.688,31.095 33.601,30.664 33.515,30.233 C33.416,29.811 33.318,29.389 33.318,29.389 C33.207,28.966 33.442,28.651 33.806,28.591 C34.172,28.537 34.594,28.812 34.724,29.231 C34.724,29.231 34.848,29.657 34.972,30.083 C35.087,30.509 35.173,30.929 35.173,30.929 C35.184,30.933 35.189,30.944 35.200,30.947 C35.235,30.987 36.401,29.797 36.401,29.797 C36.690,29.509 37.191,29.519 37.520,29.819 C37.849,30.120 37.861,30.620 37.546,30.935 C37.546,30.935 36.267,32.232 36.231,32.191 C36.231,32.191 36.670,32.355 37.107,32.490 C37.543,32.614 37.981,32.739 37.981,32.739 C38.412,32.855 38.654,33.311 38.498,33.780 ZM31.487,13.254 C31.656,13.346 31.750,13.578 31.647,13.765 C31.553,13.949 31.343,14.009 31.179,13.909 C31.179,13.909 31.010,13.810 30.842,13.711 C30.666,13.618 30.491,13.525 30.491,13.525 C30.513,13.524 30.504,14.312 30.504,14.312 C30.505,14.504 30.349,14.652 30.160,14.642 C29.972,14.631 29.817,14.477 29.818,14.298 C29.818,14.298 29.828,13.555 29.805,13.556 C29.805,13.556 29.643,13.653 29.481,13.751 C29.313,13.842 29.144,13.934 29.144,13.934 C28.979,14.021 28.768,13.972 28.674,13.834 C28.589,13.694 28.609,13.518 28.771,13.426 C28.771,13.426 28.929,13.329 29.087,13.234 C29.244,13.132 29.401,13.031 29.401,13.031 C29.401,13.031 29.398,13.020 29.398,13.020 C29.398,13.020 29.225,12.951 29.053,12.881 C28.881,12.817 28.709,12.753 28.709,12.753 C28.531,12.692 28.441,12.529 28.510,12.376 C28.576,12.222 28.772,12.133 28.950,12.186 C28.950,12.186 29.129,12.243 29.308,12.299 C29.487,12.362 29.668,12.424 29.668,12.424 C29.668,12.424 29.680,12.420 29.680,12.420 C29.680,12.420 29.543,11.699 29.543,11.699 C29.515,11.521 29.612,11.347 29.797,11.300 C29.976,11.255 30.182,11.363 30.212,11.554 C30.212,11.554 30.360,12.330 30.360,12.330 C30.360,12.330 30.507,12.206 30.655,12.081 C30.802,11.951 30.949,11.821 30.949,11.821 C31.090,11.692 31.308,11.710 31.436,11.875 C31.563,12.037 31.551,12.278 31.405,12.402 C31.405,12.402 31.248,12.528 31.092,12.654 C30.934,12.774 30.777,12.894 30.777,12.894 C30.777,12.894 30.954,12.981 31.132,13.068 C31.309,13.161 31.487,13.254 31.487,13.254 ZM28.906,19.492 C29.058,19.572 29.119,19.760 29.039,19.911 C29.039,19.911 28.957,20.067 28.876,20.222 C28.791,20.375 28.689,20.518 28.689,20.518 C28.689,20.518 28.868,20.526 29.046,20.534 C29.223,20.536 29.400,20.538 29.400,20.538 C29.569,20.535 29.714,20.681 29.703,20.865 C29.691,21.044 29.532,21.190 29.358,21.183 C29.358,21.183 28.649,21.144 28.649,21.144 C28.649,21.144 28.941,21.811 28.941,21.811 C29.007,21.975 28.915,22.166 28.746,22.237 C28.578,22.308 28.399,22.225 28.341,22.060 C28.341,22.060 28.087,21.400 28.087,21.400 C28.087,21.400 27.645,21.941 27.645,21.941 C27.537,22.073 27.345,22.085 27.219,21.967 C27.094,21.851 27.073,21.653 27.174,21.530 C27.174,21.530 27.593,21.016 27.593,21.016 C27.593,21.016 26.911,20.881 26.911,20.881 C26.747,20.846 26.630,20.688 26.643,20.536 C26.656,20.381 26.800,20.292 26.964,20.324 C26.964,20.324 27.621,20.421 27.621,20.421 C27.621,20.421 27.625,20.412 27.625,20.412 C27.625,20.412 27.298,19.814 27.298,19.814 C27.214,19.668 27.259,19.508 27.404,19.450 C27.542,19.386 27.722,19.439 27.817,19.585 C27.817,19.585 27.905,19.730 27.993,19.874 C28.076,20.021 28.159,20.169 28.159,20.169 C28.159,20.169 28.169,20.172 28.169,20.172 C28.169,20.172 28.266,20.039 28.344,19.896 C28.420,19.750 28.495,19.605 28.495,19.605 C28.570,19.463 28.755,19.414 28.906,19.492 ZM27.528,5.143 C27.528,5.143 27.318,5.195 27.108,5.248 C26.903,5.306 26.698,5.364 26.698,5.364 C26.698,5.364 27.314,5.994 27.314,5.994 C27.465,6.146 27.455,6.387 27.294,6.528 C27.141,6.662 26.902,6.658 26.762,6.517 C26.762,6.517 26.186,5.928 26.186,5.928 C26.186,5.928 26.129,6.137 26.073,6.346 C26.011,6.551 25.949,6.756 25.949,6.756 C25.887,6.954 25.683,7.079 25.504,7.044 C25.328,7.008 25.230,6.828 25.274,6.635 C25.274,6.635 25.322,6.435 25.370,6.235 C25.413,6.032 25.457,5.828 25.457,5.828 C25.457,5.828 25.445,5.822 25.445,5.822 C25.445,5.822 25.255,5.902 25.065,5.982 C24.878,6.065 24.692,6.149 24.692,6.149 C24.504,6.238 24.327,6.145 24.255,5.978 C24.185,5.805 24.272,5.581 24.455,5.484 C24.455,5.484 24.642,5.388 24.830,5.293 C25.017,5.208 25.203,5.123 25.203,5.123 C25.203,5.123 25.209,5.109 25.209,5.109 C25.225,5.088 24.545,4.640 24.545,4.640 C24.379,4.527 24.336,4.291 24.445,4.112 C24.556,3.934 24.787,3.883 24.965,4.003 C24.965,4.003 25.692,4.486 25.677,4.507 C25.677,4.507 25.702,4.287 25.728,4.068 C25.743,3.851 25.758,3.635 25.758,3.635 C25.772,3.423 25.959,3.267 26.186,3.296 C26.416,3.319 26.568,3.548 26.547,3.761 C26.547,3.761 26.520,3.983 26.494,4.205 C26.463,4.423 26.432,4.641 26.432,4.641 C26.432,4.641 26.639,4.570 26.846,4.500 C27.058,4.433 27.269,4.367 27.269,4.367 C27.481,4.296 27.714,4.432 27.783,4.660 C27.856,4.883 27.737,5.095 27.528,5.143 ZM23.551,35.146 C23.396,35.510 23.241,35.875 23.241,35.875 C23.247,35.883 23.245,35.894 23.251,35.902 C23.251,35.902 24.749,35.768 24.749,35.768 C25.114,35.715 25.465,35.967 25.539,36.365 C25.611,36.757 25.354,37.147 24.959,37.206 C24.959,37.206 23.331,37.352 23.331,37.352 C23.331,37.352 23.567,37.689 23.802,38.025 C24.050,38.361 24.298,38.696 24.298,38.696 C24.548,39.023 24.476,39.475 24.113,39.710 C23.751,39.941 23.246,39.872 23.013,39.533 C23.013,39.533 22.776,39.177 22.541,38.819 C22.317,38.462 22.095,38.105 22.095,38.105 C22.095,38.105 21.882,38.460 21.670,38.814 C21.445,39.168 21.219,39.522 21.219,39.522 C20.993,39.880 20.490,39.968 20.122,39.718 C19.752,39.480 19.668,39.026 19.908,38.701 C19.908,38.701 20.146,38.368 20.384,38.036 C20.610,37.702 20.834,37.368 20.834,37.368 C20.834,37.368 19.204,37.199 19.204,37.199 C18.803,37.169 18.535,36.777 18.597,36.381 C18.659,35.987 19.000,35.736 19.372,35.762 C19.372,35.762 20.895,35.920 20.895,35.920 C20.895,35.920 20.725,35.545 20.557,35.170 C20.401,34.797 20.246,34.423 20.246,34.423 C20.101,34.058 20.245,33.628 20.540,33.459 C20.835,33.297 21.184,33.439 21.346,33.776 C21.346,33.776 21.513,34.128 21.681,34.479 C21.861,34.830 22.041,35.182 22.041,35.182 C22.041,35.182 22.065,35.178 22.065,35.178 C22.065,35.178 22.234,34.830 22.403,34.482 C22.559,34.135 22.716,33.788 22.716,33.788 C22.866,33.432 23.209,33.273 23.512,33.451 C23.813,33.625 23.970,34.056 23.836,34.419 C23.836,34.419 23.694,34.782 23.551,35.146 ZM23.167,24.877 C23.167,24.877 22.561,25.051 22.561,25.051 C22.561,25.051 23.013,25.499 23.013,25.499 C23.128,25.606 23.131,25.784 23.009,25.900 C22.892,26.021 22.695,26.015 22.584,25.896 C22.584,25.896 22.141,25.418 22.141,25.418 C22.141,25.418 21.911,26.022 21.911,26.022 C21.854,26.176 21.671,26.239 21.516,26.173 C21.361,26.110 21.297,25.943 21.363,25.801 C21.363,25.801 21.616,25.224 21.616,25.224 C21.616,25.224 20.986,25.281 20.986,25.281 C20.835,25.294 20.703,25.179 20.696,25.020 C20.689,24.869 20.801,24.733 20.942,24.720 C20.942,24.720 21.535,24.667 21.535,24.667 C21.535,24.667 21.179,24.144 21.179,24.144 C21.097,24.016 21.120,23.842 21.222,23.755 C21.325,23.667 21.472,23.703 21.558,23.819 C21.558,23.819 21.923,24.304 21.923,24.304 C21.923,24.304 21.932,24.301 21.932,24.301 C21.932,24.301 22.089,23.720 22.089,23.720 C22.125,23.578 22.251,23.504 22.377,23.544 C22.506,23.587 22.591,23.741 22.563,23.890 C22.563,23.890 22.430,24.494 22.431,24.493 C22.431,24.493 22.436,24.503 22.436,24.503 C22.436,24.503 22.998,24.340 22.998,24.340 C23.136,24.300 23.289,24.387 23.341,24.533 C23.392,24.680 23.315,24.834 23.167,24.877 ZM19.558,2.586 C19.558,2.586 18.666,2.407 18.663,2.432 C18.663,2.432 18.748,2.651 18.833,2.871 C18.910,3.098 18.986,3.325 18.986,3.325 C19.059,3.549 18.957,3.794 18.773,3.876 C18.586,3.971 18.381,3.885 18.301,3.668 C18.301,3.668 18.216,3.452 18.132,3.236 C18.042,3.018 17.951,2.801 17.951,2.801 C17.951,2.801 17.937,2.803 17.937,2.803 C17.937,2.803 17.819,2.997 17.702,3.192 C17.592,3.392 17.480,3.592 17.480,3.592 C17.372,3.798 17.157,3.868 16.986,3.747 C16.814,3.628 16.745,3.365 16.844,3.161 C16.844,3.161 16.948,2.955 17.052,2.750 C17.163,2.545 17.273,2.339 17.273,2.339 C17.273,2.339 17.269,2.322 17.269,2.322 C17.269,2.322 16.376,2.316 16.376,2.316 C16.156,2.326 15.964,2.158 15.944,1.921 C15.924,1.689 16.097,1.471 16.332,1.461 C16.332,1.461 17.296,1.467 17.296,1.467 C17.296,1.467 17.175,1.256 17.055,1.045 C16.927,0.834 16.799,0.622 16.799,0.622 C16.671,0.418 16.736,0.156 16.960,0.039 C17.181,-0.077 17.470,-0.004 17.590,0.202 C17.590,0.202 17.715,0.408 17.831,0.636 C17.944,0.858 18.057,1.081 18.057,1.081 C18.057,1.081 18.197,0.884 18.337,0.687 C18.485,0.491 18.631,0.296 18.631,0.296 C18.778,0.107 19.074,0.064 19.281,0.210 C19.485,0.371 19.515,0.644 19.361,0.821 C19.361,0.821 19.208,1.007 19.055,1.192 C18.909,1.388 18.761,1.583 18.761,1.583 C18.764,1.558 19.712,1.747 19.712,1.747 C19.943,1.794 20.090,2.021 20.039,2.249 C19.989,2.478 19.774,2.629 19.558,2.586 ZM15.585,23.102 C15.585,23.102 16.042,22.829 16.042,22.829 C16.157,22.753 16.292,22.779 16.348,22.888 C16.407,22.999 16.370,23.152 16.259,23.230 C16.259,23.230 15.801,23.533 15.801,23.533 C15.801,23.533 15.800,23.541 15.800,23.541 C15.800,23.541 16.268,23.795 16.268,23.795 C16.384,23.857 16.430,24.011 16.376,24.133 C16.318,24.263 16.173,24.312 16.050,24.245 C16.050,24.245 15.547,23.973 15.547,23.973 C15.547,23.973 15.569,24.546 15.569,24.546 C15.578,24.688 15.471,24.804 15.321,24.802 C15.174,24.802 15.044,24.683 15.039,24.544 C15.039,24.544 15.042,23.955 15.042,23.955 C15.042,23.955 14.527,24.200 14.527,24.200 C14.400,24.258 14.234,24.196 14.167,24.065 C14.098,23.933 14.162,23.779 14.289,23.731 C14.289,23.731 14.815,23.498 14.815,23.498 C14.815,23.498 14.697,23.416 14.580,23.334 C14.470,23.242 14.359,23.150 14.359,23.150 C14.253,23.061 14.237,22.902 14.326,22.796 C14.414,22.690 14.568,22.674 14.668,22.758 C14.662,22.766 15.091,23.098 15.099,23.087 C15.100,23.087 15.169,22.537 15.169,22.537 C15.195,22.398 15.310,22.307 15.437,22.308 C15.564,22.309 15.648,22.416 15.631,22.550 C15.631,22.550 15.577,23.098 15.577,23.098 C15.577,23.098 15.585,23.102 15.585,23.102 ZM13.671,12.789 C13.671,12.789 13.240,12.724 13.240,12.724 C13.240,12.724 13.237,12.730 13.237,12.730 C13.237,12.730 13.450,13.124 13.450,13.124 C13.506,13.219 13.476,13.325 13.381,13.363 C13.285,13.401 13.170,13.368 13.107,13.271 C13.107,13.271 12.887,12.887 12.887,12.887 C12.887,12.887 12.880,12.886 12.880,12.886 C12.870,12.881 12.655,13.251 12.663,13.255 C12.613,13.350 12.494,13.381 12.396,13.329 C12.296,13.276 12.256,13.154 12.309,13.054 C12.300,13.048 12.532,12.652 12.542,12.658 C12.542,12.658 12.072,12.642 12.072,12.642 C11.962,12.643 11.865,12.545 11.877,12.427 C11.885,12.310 11.989,12.214 12.104,12.220 C12.104,12.220 12.567,12.245 12.567,12.245 C12.567,12.245 12.378,11.808 12.378,11.808 C12.337,11.703 12.395,11.576 12.506,11.530 C12.618,11.484 12.734,11.540 12.774,11.647 C12.774,11.647 12.938,12.082 12.938,12.082 C12.938,12.082 13.229,11.727 13.229,11.727 C13.299,11.640 13.423,11.633 13.507,11.710 C13.589,11.786 13.602,11.915 13.536,11.997 C13.536,11.997 13.260,12.334 13.260,12.334 C13.260,12.334 13.708,12.422 13.708,12.422 C13.815,12.447 13.892,12.551 13.883,12.652 C13.874,12.753 13.782,12.812 13.671,12.789 ZM12.564,17.631 C12.635,17.717 12.606,17.837 12.513,17.905 C12.513,17.905 12.126,18.195 12.126,18.195 C12.126,18.195 12.129,18.202 12.129,18.202 C12.129,18.202 12.596,18.340 12.596,18.340 C12.710,18.372 12.770,18.477 12.738,18.579 C12.705,18.682 12.582,18.751 12.462,18.725 C12.462,18.725 11.977,18.607 11.977,18.607 C11.977,18.607 11.969,18.611 11.969,18.611 C11.969,18.611 12.103,19.073 12.103,19.073 C12.136,19.187 12.067,19.309 11.950,19.349 C11.833,19.389 11.709,19.324 11.674,19.202 C11.674,19.202 11.531,18.703 11.531,18.703 C11.531,18.703 11.174,19.066 11.174,19.066 C11.088,19.158 10.945,19.157 10.852,19.055 C10.753,18.959 10.758,18.798 10.853,18.708 C10.853,18.708 11.234,18.354 11.234,18.354 C11.234,18.354 10.748,18.156 10.748,18.156 C10.624,18.106 10.573,17.955 10.625,17.829 C10.675,17.703 10.808,17.654 10.922,17.710 C10.922,17.710 11.388,17.927 11.388,17.927 C11.388,17.927 11.339,17.412 11.339,17.412 C11.326,17.287 11.418,17.182 11.546,17.179 C11.667,17.176 11.775,17.269 11.787,17.386 C11.787,17.386 11.833,17.871 11.833,17.871 C11.833,17.871 12.251,17.589 12.251,17.589 C12.353,17.524 12.493,17.546 12.564,17.631 ZM10.774,4.888 C10.987,5.037 11.066,5.324 10.966,5.523 C10.866,5.724 10.640,5.799 10.423,5.661 C10.423,5.661 10.204,5.529 9.984,5.398 C9.757,5.270 9.532,5.142 9.532,5.142 C9.532,5.142 9.521,5.154 9.521,5.154 C9.521,5.154 9.555,5.406 9.589,5.657 C9.623,5.902 9.680,6.164 9.680,6.164 C9.731,6.419 9.599,6.628 9.372,6.641 C9.144,6.656 8.902,6.478 8.843,6.230 C8.843,6.230 8.788,5.979 8.734,5.727 C8.685,5.471 8.637,5.214 8.637,5.214 C8.637,5.214 8.622,5.202 8.622,5.202 C8.622,5.202 7.860,5.828 7.860,5.828 C7.688,6.000 7.402,5.985 7.220,5.796 C7.038,5.607 7.039,5.302 7.225,5.118 C7.225,5.118 7.429,4.944 7.637,4.775 C7.844,4.607 8.051,4.438 8.051,4.438 C8.051,4.438 7.801,4.339 7.551,4.241 C7.294,4.147 7.037,4.054 7.037,4.054 C6.785,3.967 6.658,3.692 6.770,3.431 C6.881,3.172 7.182,3.030 7.429,3.123 C7.429,3.123 7.677,3.212 7.935,3.330 C8.186,3.444 8.438,3.559 8.438,3.559 C8.438,3.559 8.423,3.288 8.410,3.016 C8.404,2.741 8.397,2.465 8.397,2.465 C8.396,2.198 8.620,1.941 8.907,1.937 C9.195,1.934 9.406,2.154 9.393,2.418 C9.393,2.418 9.386,2.687 9.379,2.955 C9.384,3.231 9.391,3.505 9.391,3.505 C9.375,3.479 10.327,2.989 10.327,2.989 C10.559,2.868 10.838,2.965 10.948,3.204 C11.059,3.442 10.974,3.726 10.761,3.838 C10.761,3.838 9.870,4.294 9.886,4.321 C9.886,4.321 10.109,4.455 10.331,4.590 C10.552,4.739 10.774,4.888 10.774,4.888 ZM7.117,33.034 C7.117,33.034 7.468,32.913 7.817,32.793 C8.159,32.665 8.500,32.538 8.500,32.538 C8.500,32.538 7.362,31.584 7.362,31.584 C7.094,31.338 7.097,30.908 7.343,30.656 C7.595,30.399 7.977,30.397 8.223,30.625 C8.223,30.625 9.295,31.520 9.295,31.520 C9.295,31.520 9.360,31.162 9.426,30.803 C9.500,30.452 9.574,30.100 9.574,30.100 C9.651,29.761 9.981,29.523 10.295,29.552 C10.611,29.582 10.796,29.877 10.728,30.226 C10.728,30.226 10.654,30.583 10.605,30.925 C10.559,31.271 10.513,31.616 10.513,31.616 C10.513,31.616 10.534,31.624 10.534,31.624 C10.534,31.624 10.844,31.459 11.156,31.293 C11.458,31.121 11.759,30.950 11.759,30.950 C12.057,30.776 12.383,30.871 12.507,31.174 C12.638,31.465 12.535,31.844 12.239,32.042 C12.239,32.042 11.941,32.240 11.646,32.408 C11.345,32.579 11.044,32.750 11.044,32.750 C11.044,32.750 11.036,32.775 11.036,32.775 C11.036,32.776 11.312,32.982 11.612,33.148 C11.914,33.310 12.215,33.473 12.215,33.473 C12.511,33.633 12.625,34.023 12.469,34.344 C12.313,34.666 11.927,34.788 11.608,34.616 C11.608,34.616 11.282,34.440 10.957,34.263 C10.635,34.081 10.335,33.861 10.335,33.861 C10.335,33.861 10.326,34.237 10.316,34.614 C10.307,34.998 10.323,35.364 10.322,35.365 C10.338,35.721 10.039,36.024 9.653,35.997 C9.276,35.959 8.961,35.618 8.967,35.250 C8.967,35.250 8.978,34.873 8.988,34.497 C9.008,34.126 9.027,33.756 9.027,33.756 C9.027,33.756 8.683,33.905 8.339,34.054 C7.990,34.202 7.650,34.319 7.650,34.319 C7.313,34.441 6.904,34.239 6.752,33.879 C6.601,33.519 6.772,33.146 7.117,33.034 ZM5.010,24.156 C5.010,24.156 4.696,24.122 4.383,24.089 C4.065,24.046 3.748,24.002 3.748,24.002 C3.743,24.008 3.734,24.010 3.729,24.016 C3.729,24.016 4.186,25.164 4.186,25.164 C4.317,25.438 4.204,25.770 3.916,25.913 C3.632,26.054 3.270,25.936 3.129,25.639 C3.129,25.639 2.632,24.392 2.632,24.392 C2.632,24.392 2.428,24.650 2.224,24.907 C2.025,25.175 1.825,25.443 1.825,25.443 C1.632,25.709 1.267,25.750 1.000,25.515 C0.736,25.281 0.675,24.868 0.873,24.613 C0.873,24.613 1.092,24.351 1.311,24.087 C1.534,23.835 1.757,23.583 1.757,23.583 C1.757,23.583 1.434,23.492 1.111,23.402 C0.786,23.301 0.460,23.200 0.460,23.200 C0.135,23.098 -0.061,22.726 0.045,22.382 C0.144,22.041 0.474,21.877 0.780,21.996 C0.780,21.996 1.092,22.111 1.404,22.226 C1.715,22.330 2.027,22.434 2.027,22.434 C2.027,22.434 1.772,21.118 1.772,21.118 C1.704,20.797 1.930,20.502 2.254,20.465 C2.566,20.429 2.855,20.643 2.919,20.939 C2.919,20.939 3.157,22.170 3.157,22.170 C3.157,22.170 3.404,21.957 3.652,21.744 C3.904,21.541 4.155,21.339 4.155,21.339 C4.403,21.145 4.768,21.166 4.967,21.361 C5.158,21.561 5.141,21.862 4.917,22.063 C4.917,22.063 4.685,22.270 4.453,22.477 C4.225,22.694 3.996,22.912 3.996,22.912 C3.996,22.912 4.006,22.929 4.006,22.929 C4.006,22.929 4.313,22.987 4.621,23.046 C4.925,23.094 5.228,23.142 5.228,23.142 C5.544,23.181 5.743,23.417 5.679,23.692 C5.615,23.966 5.321,24.182 5.010,24.156 ZM5.083,12.919 C5.083,12.919 4.789,12.940 4.517,12.981 C4.241,13.023 3.964,13.065 3.964,13.065 C3.963,13.073 3.963,13.077 3.962,13.084 C3.962,13.084 4.166,13.290 4.370,13.496 C4.575,13.694 4.781,13.892 4.781,13.892 C4.988,14.085 4.995,14.363 4.792,14.528 C4.610,14.700 4.286,14.702 4.063,14.515 C4.063,14.515 3.833,14.325 3.633,14.132 C3.428,13.935 3.222,13.738 3.222,13.738 C3.222,13.738 3.201,13.737 3.201,13.737 C3.201,13.737 3.106,13.999 3.061,14.273 C3.009,14.545 2.957,14.818 2.957,14.818 C2.905,15.086 2.632,15.262 2.348,15.211 C2.063,15.161 1.875,14.885 1.930,14.598 C1.930,14.598 1.987,14.304 2.044,14.010 C2.096,13.715 2.195,13.433 2.196,13.433 C2.196,13.433 1.904,13.510 1.613,13.586 C1.314,13.665 1.042,13.761 1.042,13.761 C0.770,13.851 0.471,13.688 0.388,13.378 C0.324,13.076 0.508,12.754 0.793,12.676 C0.793,12.676 1.084,12.600 1.376,12.524 C1.665,12.456 1.954,12.387 1.954,12.387 C1.954,12.387 1.755,12.153 1.556,11.918 C1.352,11.677 1.180,11.438 1.180,11.438 C1.003,11.203 1.056,10.838 1.293,10.637 C1.532,10.437 1.860,10.487 2.032,10.732 C2.032,10.732 2.212,10.978 2.391,11.224 C2.574,11.462 2.757,11.699 2.757,11.699 C2.757,11.699 3.205,10.593 3.205,10.593 C3.332,10.332 3.657,10.235 3.913,10.368 C4.172,10.504 4.273,10.805 4.155,11.049 C4.155,11.049 3.735,12.090 3.735,12.090 C3.735,12.090 4.026,12.060 4.317,12.030 C4.604,12.008 4.892,11.987 4.892,11.987 C5.173,11.969 5.437,12.173 5.492,12.425 C5.548,12.680 5.368,12.892 5.083,12.919 Z" id="path-1" class="cls-2" fill-rule="evenodd"/>
</svg>
