<svg xmlns="http://www.w3.org/2000/svg" xmlns:xlink="http://www.w3.org/1999/xlink" preserveAspectRatio="xMidYMid" width="40" height="40" viewBox="0 0 40 40">
  <defs>
    <style>

      .cls-2 {
        fill: #796886;
      }
    </style>
  </defs>
  <path d="M39.003,20.999 C39.003,20.999 33.003,20.999 33.003,20.999 C32.451,20.999 32.003,20.551 32.003,19.999 C32.003,19.446 32.451,18.999 33.003,18.999 C33.003,18.999 39.003,18.999 39.003,18.999 C39.555,18.999 40.003,19.446 40.003,19.999 C40.003,20.551 39.555,20.999 39.003,20.999 ZM29.899,11.515 C29.509,11.905 28.876,11.905 28.485,11.515 C28.095,11.124 28.095,10.491 28.485,10.100 C28.485,10.100 32.728,5.858 32.728,5.858 C33.118,5.467 33.752,5.467 34.142,5.858 C34.533,6.248 34.533,6.881 34.142,7.272 C34.142,7.272 29.899,11.515 29.899,11.515 ZM20.001,29.998 C14.478,29.998 10.001,25.521 10.001,19.998 C10.001,14.475 14.478,9.998 20.001,9.998 C25.523,9.998 30.001,14.475 30.001,19.998 C30.001,25.521 25.523,29.998 20.001,29.998 ZM20.000,11.998 C15.582,11.998 12.000,15.580 12.000,19.998 C12.000,24.416 15.582,27.998 20.000,27.998 C24.419,27.998 28.000,24.416 28.000,19.998 C28.000,15.580 24.419,11.998 20.000,11.998 ZM20.000,8.000 C19.448,8.000 19.000,7.552 19.000,7.000 C19.000,7.000 19.000,1.000 19.000,1.000 C19.000,0.448 19.448,-0.000 20.000,-0.000 C20.552,-0.000 21.000,0.448 21.000,1.000 C21.000,1.000 21.000,7.000 21.000,7.000 C21.000,7.552 20.552,8.000 20.000,8.000 ZM10.105,11.511 C10.105,11.511 5.863,7.269 5.863,7.269 C5.472,6.878 5.472,6.245 5.863,5.855 C6.253,5.464 6.886,5.464 7.277,5.855 C7.277,5.855 11.520,10.097 11.520,10.097 C11.910,10.488 11.910,11.121 11.520,11.511 C11.129,11.902 10.496,11.902 10.105,11.511 ZM8.003,19.999 C8.003,20.551 7.555,20.999 7.003,20.999 C7.003,20.999 1.003,20.999 1.003,20.999 C0.451,20.999 0.003,20.551 0.003,19.999 C0.003,19.446 0.451,18.999 1.003,18.999 C1.003,18.999 7.003,18.999 7.003,18.999 C7.555,18.999 8.003,19.446 8.003,19.999 ZM10.100,28.485 C10.491,28.095 11.124,28.095 11.515,28.485 C11.905,28.876 11.905,29.509 11.515,29.899 C11.515,29.899 7.272,34.142 7.272,34.142 C6.881,34.532 6.248,34.532 5.858,34.142 C5.467,33.751 5.467,33.118 5.858,32.728 C5.858,32.728 10.100,28.485 10.100,28.485 ZM20.000,32.000 C20.552,32.000 21.000,32.447 21.000,33.000 C21.000,33.000 21.000,39.000 21.000,39.000 C21.000,39.552 20.552,40.000 20.000,40.000 C19.448,40.000 19.000,39.552 19.000,39.000 C19.000,39.000 19.000,33.000 19.000,33.000 C19.000,32.447 19.448,32.000 20.000,32.000 ZM29.904,28.482 C29.904,28.482 34.147,32.725 34.147,32.725 C34.538,33.115 34.538,33.748 34.147,34.139 C33.756,34.529 33.123,34.529 32.733,34.139 C32.733,34.139 28.490,29.896 28.490,29.896 C28.100,29.506 28.100,28.873 28.490,28.482 C28.881,28.091 29.514,28.091 29.904,28.482 Z" id="path-1" class="cls-2" fill-rule="evenodd"/>
</svg>
