<svg xmlns="http://www.w3.org/2000/svg" xmlns:xlink="http://www.w3.org/1999/xlink" preserveAspectRatio="xMidYMid" width="49" height="43" viewBox="0 0 49 43">
  <defs>
    <style>

      .cls-2 {
        fill: #796886;
      }
    </style>
  </defs>
  <path d="M35.040,35.956 C35.033,35.956 34.290,35.957 33.054,35.958 C33.035,35.959 33.019,35.969 33.000,35.969 C32.448,35.969 32.000,35.521 32.000,34.969 C32.000,34.416 32.448,33.969 33.000,33.969 C33.000,33.969 33.000,33.958 33.000,33.958 C34.255,33.958 35.002,33.957 35.002,33.957 C41.714,33.708 47.000,28.222 47.000,21.469 C47.000,14.576 41.391,8.969 34.498,8.969 C28.976,8.969 24.042,12.674 22.500,17.978 C22.420,18.253 22.226,18.481 21.967,18.603 C21.708,18.726 21.409,18.732 21.145,18.617 C20.144,18.187 19.082,17.969 17.988,17.969 C14.457,17.969 11.300,20.337 10.312,23.729 C10.232,24.004 10.038,24.231 9.780,24.354 C9.521,24.476 9.223,24.483 8.959,24.370 C8.339,24.104 7.680,23.970 7.001,23.970 C4.244,23.970 2.000,26.212 2.000,28.969 C2.000,31.726 4.244,33.969 7.001,33.969 C7.622,33.969 8.294,33.969 9.000,33.969 C9.000,33.969 9.000,33.969 9.000,33.969 C9.552,33.969 10.000,34.416 10.000,34.969 C10.000,35.521 9.552,35.969 9.000,35.969 C9.000,35.969 8.999,35.968 8.999,35.968 C8.294,35.969 7.622,35.969 7.001,35.969 C3.140,35.969 0.000,32.828 0.000,28.969 C0.000,26.612 1.180,24.533 2.971,23.264 C1.943,22.491 1.017,21.575 0.249,20.508 C0.024,20.193 0.000,19.778 0.189,19.440 C0.378,19.102 0.737,18.908 1.135,18.928 C1.135,18.928 1.298,18.940 1.298,18.940 C1.477,18.951 1.655,18.965 1.836,18.965 C7.943,18.965 12.911,14.028 12.911,7.960 C12.911,5.664 12.197,3.456 10.846,1.577 C10.620,1.263 10.596,0.847 10.785,0.510 C10.973,0.172 11.344,-0.031 11.729,-0.003 C18.144,0.399 23.235,5.393 23.889,11.617 C26.577,8.734 30.396,6.969 34.498,6.969 C42.494,6.969 49.000,13.473 49.000,21.469 C49.000,29.303 42.868,35.666 35.040,35.956 ZM13.618,2.307 C14.478,4.063 14.925,5.983 14.925,7.960 C14.925,14.662 9.797,20.197 3.235,20.893 C3.795,21.427 4.423,21.871 5.078,22.272 C5.693,22.095 6.329,21.970 7.001,21.970 C7.591,21.970 8.172,22.043 8.735,22.187 C10.255,18.479 13.923,15.969 17.988,15.969 C18.990,15.969 19.971,16.115 20.916,16.405 C21.182,15.694 21.502,15.012 21.870,14.362 C21.930,13.903 21.973,13.438 21.973,12.962 C21.973,7.864 18.437,3.518 13.618,2.307 ZM19.077,35.205 C19.633,34.314 24.070,27.209 24.070,27.209 C24.211,26.983 24.506,26.910 24.739,27.046 C24.969,27.180 25.056,27.463 24.940,27.697 C24.940,27.697 22.001,33.969 22.001,33.969 C22.001,33.969 25.036,33.974 24.466,33.974 C24.553,33.972 24.637,33.993 24.719,34.038 C24.965,34.174 25.063,34.494 24.923,34.732 C24.367,35.623 19.930,42.728 19.930,42.728 C19.789,42.954 19.494,43.028 19.261,42.892 C19.031,42.758 18.944,42.474 19.060,42.240 C19.060,42.240 21.999,35.969 21.999,35.969 C21.999,35.969 18.849,35.963 19.534,35.963 C19.447,35.965 19.363,35.945 19.281,35.899 C19.035,35.763 18.936,35.443 19.077,35.205 Z" id="path-1" class="cls-2" fill-rule="evenodd"/>
</svg>
