<svg xmlns="http://www.w3.org/2000/svg" xmlns:xlink="http://www.w3.org/1999/xlink" preserveAspectRatio="xMidYMid" width="49" height="36" viewBox="0 0 49 36">
  <defs>
    <style>

      .cls-2 {
        fill: #796886;
      }
    </style>
  </defs>
  <path d="M35.040,28.987 C35.033,28.987 34.290,28.988 33.054,28.989 C33.035,28.990 33.019,29.000 33.000,29.000 C32.448,29.000 32.000,28.552 32.000,28.000 C32.000,27.448 32.448,27.000 33.000,27.000 C33.000,27.000 33.000,26.989 33.000,26.989 C34.255,26.989 35.002,26.988 35.002,26.988 C41.714,26.739 47.000,21.253 47.000,14.500 C47.000,7.608 41.391,2.000 34.498,2.000 C28.976,2.000 24.042,5.705 22.500,11.009 C22.420,11.284 22.226,11.512 21.967,11.634 C21.708,11.757 21.409,11.763 21.145,11.649 C20.144,11.218 19.082,11.000 17.988,11.000 C14.457,11.000 11.300,13.369 10.312,16.760 C10.232,17.036 10.038,17.262 9.780,17.385 C9.521,17.507 9.223,17.514 8.959,17.401 C8.339,17.135 7.680,17.001 7.001,17.001 C4.244,17.001 2.000,19.243 2.000,22.000 C2.000,24.757 4.244,27.000 7.001,27.000 C7.622,27.000 8.294,27.000 9.000,27.000 C9.000,27.000 9.000,27.000 9.000,27.000 C9.552,27.000 10.000,27.448 10.000,28.000 C10.000,28.552 9.552,29.000 9.000,29.000 C9.000,29.000 8.999,29.000 8.999,29.000 C8.294,29.000 7.622,29.000 7.001,29.000 C3.140,29.000 0.000,25.859 0.000,22.000 C0.000,18.141 3.140,15.001 7.001,15.001 C7.591,15.001 8.172,15.074 8.735,15.218 C10.255,11.511 13.923,9.000 17.988,9.000 C18.990,9.000 19.971,9.146 20.916,9.437 C23.010,3.830 28.449,-0.000 34.498,-0.000 C42.494,-0.000 49.000,6.505 49.000,14.500 C49.000,22.334 42.868,28.697 35.040,28.987 ZM17.077,28.236 C17.633,27.345 22.070,20.240 22.070,20.240 C22.211,20.015 22.506,19.941 22.739,20.077 C22.969,20.211 23.056,20.494 22.940,20.728 C22.940,20.728 20.001,27.000 20.001,27.000 C20.001,27.000 23.036,27.005 22.466,27.005 C22.553,27.004 22.637,27.024 22.719,27.069 C22.965,27.206 23.063,27.525 22.923,27.763 C22.367,28.655 17.930,35.760 17.930,35.760 C17.789,35.985 17.494,36.059 17.261,35.923 C17.031,35.789 16.944,35.506 17.060,35.271 C17.060,35.271 19.999,29.000 19.999,29.000 C19.999,29.000 16.849,28.994 17.534,28.994 C17.447,28.996 17.363,28.976 17.281,28.931 C17.035,28.794 16.937,28.475 17.077,28.236 Z" id="path-1" class="cls-2" fill-rule="evenodd"/>
</svg>
