<svg xmlns="http://www.w3.org/2000/svg" xmlns:xlink="http://www.w3.org/1999/xlink" preserveAspectRatio="xMidYMid" width="49" height="43" viewBox="0 0 49 43">
  <defs>
    <style>

      .cls-2 {
        fill: #796886;
      }
    </style>
  </defs>
  <path d="M21.990,25.040 C21.990,25.028 21.985,25.017 21.985,25.005 C21.985,24.988 21.990,24.972 21.990,24.955 C21.990,24.955 21.990,25.040 21.990,25.040 ZM35.040,28.987 C35.035,28.987 34.674,28.988 34.058,28.988 C34.038,28.989 34.020,29.000 34.000,29.000 C33.448,29.000 33.000,28.552 33.000,28.000 C33.000,27.448 33.448,27.000 34.000,27.000 C34.000,27.000 34.000,27.000 34.000,27.000 C34.000,27.000 34.000,26.989 34.000,26.989 C34.636,26.989 35.002,26.988 35.002,26.988 C41.714,26.739 47.000,21.253 47.000,14.500 C47.000,7.608 41.391,2.000 34.498,2.000 C28.976,2.000 24.042,5.705 22.500,11.009 C22.420,11.284 22.226,11.512 21.967,11.634 C21.708,11.757 21.409,11.763 21.145,11.648 C20.144,11.218 19.082,11.000 17.988,11.000 C14.457,11.000 11.300,13.369 10.312,16.760 C10.232,17.036 10.038,17.262 9.780,17.385 C9.521,17.507 9.223,17.514 8.959,17.401 C8.339,17.135 7.680,17.001 7.001,17.001 C4.244,17.001 2.000,19.243 2.000,22.000 C2.000,24.757 4.244,27.000 7.001,27.000 C10.927,27.000 16.697,26.998 21.990,26.995 C21.990,26.995 21.990,27.006 21.990,27.006 C21.990,27.006 25.981,27.006 25.981,27.006 C25.983,27.006 25.986,27.006 25.988,27.006 C27.092,27.006 27.988,26.111 27.988,25.006 C27.988,23.902 27.094,23.008 25.990,23.006 C25.990,23.006 25.990,23.006 25.990,23.006 C25.989,23.006 25.988,23.006 25.987,23.006 C25.435,23.006 24.987,22.558 24.987,22.006 C24.987,21.463 25.422,21.027 25.961,21.011 C25.961,21.011 25.917,21.011 25.917,21.011 C25.941,21.011 25.962,21.005 25.985,21.005 C28.194,21.005 29.985,22.796 29.985,25.005 C29.985,27.214 28.194,29.005 25.985,29.005 C25.946,29.005 25.910,28.994 25.871,28.993 C20.511,28.996 13.870,28.999 9.000,29.000 C9.000,29.000 9.000,29.000 9.000,29.000 C9.000,29.000 9.000,29.000 9.000,29.000 C8.293,29.000 7.623,29.000 7.001,29.000 C3.140,29.000 0.000,25.859 0.000,22.000 C0.000,18.141 3.140,15.001 7.001,15.001 C7.591,15.001 8.172,15.074 8.735,15.218 C10.255,11.511 13.923,9.000 17.988,9.000 C18.990,9.000 19.971,9.147 20.916,9.437 C23.010,3.830 28.449,-0.000 34.498,-0.000 C42.494,-0.000 49.000,6.505 49.000,14.500 C49.000,22.334 42.868,28.697 35.040,28.987 ZM4.966,31.006 C4.966,31.006 15.976,31.006 15.976,31.006 C15.976,31.006 17.016,31.006 17.016,31.006 C17.016,31.006 36.006,31.006 36.006,31.006 C36.121,31.006 36.228,31.036 36.331,31.073 C36.554,31.042 36.776,31.005 37.008,31.005 C39.770,31.005 42.008,33.243 42.008,36.004 C42.008,38.756 39.784,40.986 37.036,41.001 C37.028,41.002 37.021,41.006 37.012,41.006 C36.460,41.006 36.012,40.559 36.012,40.006 C36.012,39.458 36.454,39.016 37.000,39.009 C37.000,39.009 37.000,39.005 37.000,39.005 C37.004,39.005 37.008,39.006 37.012,39.006 C37.012,39.006 37.012,39.006 37.012,39.006 C37.013,39.006 37.013,39.006 37.013,39.006 C38.670,39.006 40.013,37.663 40.013,36.006 C40.013,34.349 38.670,33.006 37.013,33.006 C37.009,33.006 37.004,33.007 37.000,33.007 C37.000,33.007 37.000,33.000 37.000,33.000 C37.000,33.000 32.000,33.000 32.000,33.000 C32.000,33.000 31.999,33.006 31.999,33.006 C31.999,33.006 17.016,33.006 17.016,33.006 C17.016,33.006 15.976,33.006 15.976,33.006 C15.976,33.006 4.966,33.006 4.966,33.006 C4.429,33.006 3.994,32.558 3.994,32.006 C3.994,31.454 4.429,31.006 4.966,31.006 ZM12.994,35.006 C12.994,35.006 26.000,35.000 26.000,35.000 C26.022,35.000 26.041,35.011 26.063,35.012 C28.235,35.055 29.985,36.822 29.985,39.005 C29.985,41.207 28.204,42.992 26.004,43.003 C25.998,43.003 25.993,43.006 25.987,43.006 C25.435,43.006 24.987,42.559 24.987,42.006 C24.987,41.454 25.435,41.006 25.987,41.006 C25.992,41.006 25.996,41.009 26.000,41.009 C26.000,41.009 26.000,41.005 26.000,41.005 C27.099,40.998 27.988,40.107 27.988,39.006 C27.988,37.906 27.099,37.014 26.000,37.007 C26.000,37.007 26.000,37.000 26.000,37.000 C26.000,37.000 20.000,37.000 20.000,37.000 C20.000,37.000 20.000,37.003 20.000,37.003 C20.000,37.003 12.994,37.006 12.994,37.006 C12.441,37.006 11.994,36.558 11.994,36.006 C11.994,35.454 12.441,35.006 12.994,35.006 Z" id="path-1" class="cls-2" fill-rule="evenodd"/>
</svg>
