<svg xmlns="http://www.w3.org/2000/svg" xmlns:xlink="http://www.w3.org/1999/xlink" preserveAspectRatio="xMidYMid" width="54" height="53" viewBox="0 0 54 53">
  <defs>
    <style>

      .cls-2 {
        fill: #796886;
      }
    </style>
  </defs>
  <path d="M26.990,35.040 C26.990,35.028 26.985,35.017 26.985,35.005 C26.985,34.988 26.990,34.972 26.990,34.955 C26.990,34.955 26.990,35.040 26.990,35.040 ZM40.040,38.987 C40.035,38.987 39.674,38.988 39.058,38.988 C39.038,38.989 39.020,39.000 39.000,39.000 C38.448,39.000 38.000,38.552 38.000,38.000 C38.000,37.448 38.448,37.000 39.000,37.000 C39.000,37.000 39.000,37.000 39.000,37.000 C39.000,37.000 39.000,36.989 39.000,36.989 C39.636,36.989 40.002,36.988 40.002,36.988 C46.714,36.739 52.000,31.253 52.000,24.500 C52.000,17.608 46.391,12.000 39.498,12.000 C33.976,12.000 29.042,15.705 27.500,21.009 C27.420,21.284 27.226,21.512 26.967,21.634 C26.708,21.757 26.409,21.763 26.145,21.649 C25.144,21.218 24.082,21.000 22.988,21.000 C19.457,21.000 16.300,23.369 15.312,26.760 C15.232,27.036 15.038,27.262 14.780,27.385 C14.521,27.507 14.223,27.514 13.959,27.401 C13.339,27.135 12.680,27.001 12.001,27.001 C9.244,27.001 7.000,29.243 7.000,32.000 C7.000,34.757 9.244,37.000 12.001,37.000 C15.927,37.000 21.697,36.998 26.990,36.995 C26.990,36.995 26.990,37.006 26.990,37.006 C26.990,37.006 30.981,37.006 30.981,37.006 C30.983,37.006 30.986,37.006 30.988,37.006 C32.092,37.006 32.988,36.111 32.988,35.006 C32.988,33.902 32.094,33.008 30.990,33.006 C30.990,33.006 30.990,33.006 30.990,33.006 C30.989,33.006 30.988,33.006 30.987,33.006 C30.435,33.006 29.987,32.558 29.987,32.006 C29.987,31.463 30.422,31.027 30.961,31.012 C30.961,31.012 30.917,31.012 30.917,31.012 C30.941,31.011 30.962,31.005 30.985,31.005 C33.194,31.005 34.985,32.796 34.985,35.005 C34.985,37.214 33.194,39.005 30.985,39.005 C30.946,39.005 30.910,38.994 30.871,38.993 C25.511,38.996 18.870,38.999 14.000,39.000 C14.000,39.000 14.000,39.000 14.000,39.000 C14.000,39.000 14.000,39.000 14.000,39.000 C13.293,39.000 12.623,39.000 12.001,39.000 C8.140,39.000 5.000,35.859 5.000,32.000 C5.000,28.341 7.833,25.363 11.416,25.060 C10.533,23.572 10.000,21.854 10.000,19.998 C10.000,14.475 14.478,9.998 20.001,9.998 C23.680,9.998 26.874,11.999 28.610,14.960 C31.309,11.894 35.250,10.000 39.498,10.000 C47.494,10.000 54.000,16.505 54.000,24.500 C54.000,32.334 47.868,38.697 40.040,38.987 ZM20.000,11.998 C15.582,11.998 12.000,15.580 12.000,19.998 C12.000,21.921 12.683,23.682 13.814,25.061 C15.373,21.443 18.983,19.000 22.988,19.000 C23.990,19.000 24.971,19.147 25.916,19.437 C26.275,18.475 26.739,17.570 27.282,16.723 C26.030,13.941 23.249,11.998 20.000,11.998 ZM29.899,11.515 C29.509,11.905 28.876,11.905 28.485,11.515 C28.095,11.124 28.095,10.491 28.485,10.100 C28.485,10.100 32.728,5.858 32.728,5.858 C33.118,5.467 33.751,5.467 34.142,5.858 C34.533,6.248 34.533,6.881 34.142,7.272 C34.142,7.272 29.899,11.515 29.899,11.515 ZM20.000,8.000 C19.448,8.000 19.000,7.552 19.000,7.000 C19.000,7.000 19.000,1.000 19.000,1.000 C19.000,0.447 19.448,-0.000 20.000,-0.000 C20.552,-0.000 21.000,0.447 21.000,1.000 C21.000,1.000 21.000,7.000 21.000,7.000 C21.000,7.552 20.552,8.000 20.000,8.000 ZM10.105,11.511 C10.105,11.511 5.863,7.269 5.863,7.269 C5.472,6.878 5.472,6.245 5.863,5.855 C6.253,5.464 6.886,5.464 7.277,5.855 C7.277,5.855 11.520,10.097 11.520,10.097 C11.910,10.488 11.910,11.121 11.520,11.511 C11.129,11.902 10.496,11.902 10.105,11.511 ZM8.003,19.998 C8.003,20.551 7.555,20.998 7.003,20.998 C7.003,20.998 1.003,20.998 1.003,20.998 C0.451,20.998 0.003,20.551 0.003,19.998 C0.003,19.446 0.451,18.999 1.003,18.999 C1.003,18.999 7.003,18.999 7.003,18.999 C7.555,18.999 8.003,19.446 8.003,19.998 ZM9.966,41.006 C9.966,41.006 20.976,41.006 20.976,41.006 C20.976,41.006 22.016,41.006 22.016,41.006 C22.016,41.006 41.006,41.006 41.006,41.006 C41.121,41.006 41.228,41.036 41.331,41.073 C41.554,41.042 41.776,41.005 42.008,41.005 C44.770,41.005 47.008,43.243 47.008,46.004 C47.008,48.756 44.784,50.986 42.036,51.001 C42.028,51.002 42.021,51.006 42.012,51.006 C41.460,51.006 41.012,50.558 41.012,50.006 C41.012,49.458 41.454,49.016 42.000,49.009 C42.000,49.009 42.000,49.005 42.000,49.005 C42.004,49.005 42.008,49.006 42.012,49.006 C42.012,49.006 42.012,49.006 42.012,49.006 C42.013,49.006 42.013,49.006 42.013,49.006 C43.670,49.006 45.013,47.663 45.013,46.006 C45.013,44.349 43.670,43.006 42.013,43.006 C42.009,43.006 42.004,43.007 42.000,43.007 C42.000,43.007 42.000,43.000 42.000,43.000 C42.000,43.000 37.000,43.000 37.000,43.000 C37.000,43.000 36.999,43.006 36.999,43.006 C36.999,43.006 22.016,43.006 22.016,43.006 C22.016,43.006 20.976,43.006 20.976,43.006 C20.976,43.006 9.966,43.006 9.966,43.006 C9.429,43.006 8.994,42.558 8.994,42.006 C8.994,41.454 9.429,41.006 9.966,41.006 ZM17.994,45.006 C17.994,45.006 31.000,45.000 31.000,45.000 C31.022,45.000 31.041,45.011 31.063,45.012 C33.235,45.055 34.985,46.822 34.985,49.005 C34.985,51.207 33.204,52.992 31.004,53.003 C30.998,53.003 30.993,53.006 30.987,53.006 C30.435,53.006 29.987,52.558 29.987,52.006 C29.987,51.454 30.435,51.006 30.987,51.006 C30.992,51.006 30.996,51.009 31.000,51.009 C31.000,51.009 31.000,51.005 31.000,51.005 C32.099,50.998 32.988,50.107 32.988,49.006 C32.988,47.906 32.099,47.014 31.000,47.007 C31.000,47.007 31.000,47.000 31.000,47.000 C31.000,47.000 25.000,47.000 25.000,47.000 C25.000,47.000 25.000,47.003 25.000,47.003 C25.000,47.003 17.994,47.006 17.994,47.006 C17.441,47.006 16.994,46.558 16.994,46.006 C16.994,45.454 17.441,45.006 17.994,45.006 Z" id="path-1" class="cls-2" fill-rule="evenodd"/>
</svg>
