<svg xmlns="http://www.w3.org/2000/svg" xmlns:xlink="http://www.w3.org/1999/xlink" preserveAspectRatio="xMidYMid" width="49" height="50" viewBox="0 0 49 50">
  <defs>
    <style>

      .cls-2 {
        fill: #796886;
      }
    </style>
  </defs>
  <path d="M21.990,32.044 C21.990,32.020 21.985,31.997 21.985,31.974 C21.985,31.956 21.990,31.941 21.990,31.924 C21.990,31.924 21.990,32.044 21.990,32.044 ZM35.040,35.956 C35.035,35.956 34.674,35.956 34.058,35.957 C34.038,35.958 34.020,35.969 34.000,35.969 C33.448,35.969 33.000,35.521 33.000,34.969 C33.000,34.416 33.448,33.969 34.000,33.969 C34.000,33.969 34.000,33.969 34.000,33.969 C34.000,33.969 34.000,33.958 34.000,33.958 C34.636,33.957 35.002,33.957 35.002,33.957 C41.714,33.708 47.000,28.222 47.000,21.469 C47.000,14.576 41.391,8.969 34.498,8.969 C28.976,8.969 24.042,12.673 22.500,17.978 C22.420,18.253 22.226,18.481 21.967,18.603 C21.708,18.726 21.409,18.732 21.145,18.617 C20.144,18.187 19.082,17.969 17.988,17.969 C14.457,17.969 11.300,20.337 10.312,23.729 C10.232,24.004 10.038,24.231 9.780,24.354 C9.521,24.476 9.223,24.483 8.959,24.369 C8.339,24.104 7.680,23.970 7.001,23.970 C4.244,23.970 2.000,26.212 2.000,28.969 C2.000,31.726 4.244,33.969 7.001,33.969 C10.927,33.969 16.697,33.966 21.990,33.964 C21.990,33.964 21.990,33.974 21.990,33.974 C21.990,33.974 25.981,33.974 25.981,33.974 C25.983,33.974 25.986,33.975 25.988,33.975 C27.092,33.975 27.988,33.080 27.988,31.975 C27.988,30.871 27.094,29.976 25.990,29.975 C25.990,29.975 25.990,29.974 25.990,29.974 C25.989,29.974 25.988,29.975 25.987,29.975 C25.435,29.975 24.987,29.527 24.987,28.975 C24.987,28.432 25.422,27.995 25.961,27.980 C25.961,27.980 25.918,27.980 25.918,27.980 C25.941,27.980 25.962,27.974 25.985,27.974 C28.194,27.974 29.985,29.764 29.985,31.974 C29.985,34.183 28.194,35.973 25.985,35.973 C25.946,35.973 25.910,35.963 25.871,35.962 C20.511,35.965 13.870,35.968 9.000,35.969 C9.000,35.969 9.000,35.969 9.000,35.969 C9.000,35.969 9.000,35.969 9.000,35.969 C8.293,35.969 7.623,35.969 7.001,35.969 C3.140,35.969 0.000,32.828 0.000,28.969 C0.000,26.612 1.180,24.533 2.971,23.264 C1.943,22.491 1.017,21.575 0.249,20.508 C0.024,20.193 0.000,19.778 0.189,19.440 C0.378,19.102 0.737,18.908 1.135,18.928 C1.135,18.928 1.298,18.939 1.298,18.939 C1.477,18.951 1.655,18.965 1.836,18.965 C7.943,18.965 12.911,14.028 12.911,7.960 C12.911,5.664 12.197,3.456 10.846,1.577 C10.620,1.263 10.596,0.847 10.785,0.510 C10.973,0.172 11.344,-0.031 11.729,-0.003 C18.144,0.399 23.235,5.393 23.889,11.617 C26.577,8.734 30.396,6.969 34.498,6.969 C42.494,6.969 49.000,13.473 49.000,21.469 C49.000,29.303 42.868,35.666 35.040,35.956 ZM13.618,2.307 C14.478,4.063 14.925,5.983 14.925,7.960 C14.925,14.662 9.797,20.197 3.235,20.893 C3.795,21.427 4.423,21.871 5.078,22.272 C5.693,22.095 6.329,21.970 7.001,21.970 C7.592,21.970 8.172,22.043 8.735,22.187 C10.255,18.480 13.923,15.969 17.988,15.969 C18.990,15.969 19.971,16.115 20.916,16.405 C21.182,15.694 21.502,15.012 21.870,14.363 C21.930,13.903 21.973,13.438 21.973,12.962 C21.973,7.864 18.437,3.518 13.618,2.307 ZM4.966,37.975 C4.966,37.975 15.976,37.975 15.976,37.975 C15.976,37.975 17.016,37.975 17.016,37.975 C17.016,37.975 36.006,37.975 36.006,37.975 C36.121,37.975 36.228,38.005 36.331,38.042 C36.554,38.011 36.776,37.973 37.008,37.973 C39.770,37.973 42.008,40.212 42.008,42.973 C42.008,45.725 39.784,47.955 37.036,47.970 C37.028,47.970 37.021,47.975 37.012,47.975 C36.460,47.975 36.012,47.527 36.012,46.975 C36.012,46.427 36.454,45.985 37.000,45.977 C37.000,45.977 37.000,45.974 37.000,45.974 C37.004,45.974 37.008,45.975 37.012,45.975 C37.012,45.975 37.012,45.975 37.012,45.975 C37.013,45.975 37.013,45.975 37.013,45.975 C38.670,45.975 40.013,44.632 40.013,42.975 C40.013,41.318 38.670,39.975 37.013,39.975 C37.009,39.975 37.004,39.976 37.000,39.976 C37.000,39.976 37.000,39.969 37.000,39.969 C37.000,39.969 32.000,39.969 32.000,39.969 C32.000,39.969 31.999,39.975 31.999,39.975 C31.999,39.975 17.016,39.975 17.016,39.975 C17.016,39.975 15.976,39.975 15.976,39.975 C15.976,39.975 4.966,39.975 4.966,39.975 C4.429,39.975 3.994,39.527 3.994,38.975 C3.994,38.423 4.429,37.975 4.966,37.975 ZM12.994,41.975 C12.994,41.975 26.000,41.969 26.000,41.969 C26.022,41.969 26.041,41.980 26.063,41.981 C28.235,42.024 29.985,43.791 29.985,45.974 C29.985,48.176 28.204,49.961 26.004,49.972 C25.998,49.972 25.993,49.975 25.987,49.975 C25.435,49.975 24.987,49.527 24.987,48.975 C24.987,48.423 25.435,47.975 25.987,47.975 C25.992,47.975 25.996,47.977 26.000,47.977 C26.000,47.977 26.000,47.974 26.000,47.974 C27.099,47.967 27.988,47.076 27.988,45.975 C27.988,44.875 27.099,43.983 26.000,43.976 C26.000,43.976 26.000,43.969 26.000,43.969 C26.000,43.969 20.000,43.969 20.000,43.969 C20.000,43.969 20.000,43.972 20.000,43.972 C20.000,43.972 12.994,43.975 12.994,43.975 C12.441,43.975 11.994,43.527 11.994,42.975 C11.994,42.423 12.441,41.975 12.994,41.975 Z" id="path-1" class="cls-2" fill-rule="evenodd"/>
</svg>
